<svg width="66" height="60" viewBox="0 0 66 60" fill="none" xmlns="http://www.w3.org/2000/svg">
<path fill-rule="evenodd" clip-rule="evenodd" d="M35.265 1.84272C38.458 1.12672 41.753 0.843721 45.019 1.08372C49.957 1.43372 54.838 3.03972 58.889 5.91072C60.987 7.38772 62.852 9.19272 64.41 11.2317C62.836 10.2967 61.131 9.59872 59.388 9.04672C55.707 7.89872 51.755 7.54972 47.948 8.21672C47.259 8.34372 46.519 8.42172 45.941 8.85372C45.719 9.01372 45.534 9.28072 45.599 9.56672C45.691 9.97372 46.059 10.2257 46.367 10.4707C50.362 13.3127 53.438 17.4297 55.001 22.0797C56.502 26.4927 56.639 31.3577 55.386 35.8487C54.888 37.6477 54.172 39.3867 53.26 41.0157C53.049 41.4237 52.772 41.7947 52.597 42.2217C51.813 43.6257 50.848 44.9237 49.8 46.1417C46.878 49.5187 43.207 52.2127 39.187 54.1407C35.985 55.7347 32.578 56.9347 29.062 57.6097C24.638 58.4587 20.025 58.4677 15.636 57.4057C13.182 56.8147 10.805 55.8927 8.611 54.6427C5.662 52.9667 3.056 50.6917 1 47.9937C3.02 49.1797 5.233 50.0177 7.5 50.5917C10.752 51.4047 14.174 51.5837 17.482 51.0077C18.137 50.8817 18.834 50.8087 19.399 50.4227C19.653 50.2597 19.882 49.9727 19.81 49.6537C19.717 49.2467 19.349 48.9967 19.042 48.7527C15.049 45.9077 11.973 41.7917 10.409 37.1437C9.446 34.3087 9.042 31.2877 9.212 28.2997C9.418 24.4497 10.615 20.6637 12.631 17.3807C12.944 16.7057 13.355 16.0827 13.768 15.4667C16.829 11.0367 21.157 7.55772 25.981 5.20772C28.925 3.71872 32.043 2.56272 35.265 1.84272ZM31.679 19.9537C28.881 20.2327 26.257 21.8137 24.684 24.1407C23.383 26.0287 22.801 28.3897 23.057 30.6677C23.28 32.7877 24.235 34.8187 25.719 36.3477C27.204 37.8957 29.218 38.9267 31.344 39.2197C33.563 39.5387 35.888 39.0617 37.793 37.8757C39.587 36.7737 41.004 35.0717 41.76 33.1067C42.586 30.9817 42.626 28.5647 41.872 26.4137C41.179 24.4067 39.8 22.6477 38.023 21.4857C36.171 20.2587 33.886 19.7157 31.679 19.9537Z" stroke="#45AAFF" stroke-width="2" stroke-miterlimit="1.41421" stroke-linejoin="round"/>
</svg>
