<?xml version="1.0" encoding="UTF-8"?> <svg xmlns="http://www.w3.org/2000/svg" xmlns:xlink="http://www.w3.org/1999/xlink" version="1.1" id="Layer_1" x="0px" y="0px" width="400px" height="245px" viewBox="0 0 400 245" style="enable-background:new 0 0 400 245;" xml:space="preserve"> <style type="text/css"> .st0{fill-rule:evenodd;clip-rule:evenodd;fill:#A5CAD3;} .st1{clip-path:url(#SVGID_00000080174461532850111790000015268263410797486474_);} .st2{fill-rule:evenodd;clip-rule:evenodd;fill:#0C2D4D;} .st3{fill-rule:evenodd;clip-rule:evenodd;fill:#6598B9;} .st4{fill-rule:evenodd;clip-rule:evenodd;fill:#A3C9D4;} .st5{fill-rule:evenodd;clip-rule:evenodd;fill:#D2E5EA;} .st6{fill-rule:evenodd;clip-rule:evenodd;fill:#0A3655;} .st7{fill-rule:evenodd;clip-rule:evenodd;fill:#F9C57C;} .st8{fill-rule:evenodd;clip-rule:evenodd;fill:#FEE7AD;} .st9{fill-rule:evenodd;clip-rule:evenodd;fill:#D3E7EB;} .st10{fill-rule:evenodd;clip-rule:evenodd;fill:#6998B9;} .st11{fill-rule:evenodd;clip-rule:evenodd;fill:#CBE0E5;} .st12{fill-rule:evenodd;clip-rule:evenodd;fill:#81ACC0;} .st13{fill-rule:evenodd;clip-rule:evenodd;fill:#CA3128;} .st14{fill-rule:evenodd;clip-rule:evenodd;fill:#A82724;} .st15{fill-rule:evenodd;clip-rule:evenodd;fill:#FFFFFF;} .st16{fill-rule:evenodd;clip-rule:evenodd;fill:#DAD9D8;} .st17{fill-rule:evenodd;clip-rule:evenodd;fill:#FFF6D2;} .st18{fill-rule:evenodd;clip-rule:evenodd;fill:#FCDEAE;} </style> <g> <g> <circle class="st0" cx="200" cy="133.4" r="92.8"></circle> </g> <g> <g> <defs> <circle id="SVGID_1_" cx="200" cy="133.4" r="92.8"></circle> </defs> <clipPath id="SVGID_00000057143550941893073320000001746440508578835588_"> <use xlink:href="#SVGID_1_" style="overflow:visible;"></use> </clipPath> <g style="clip-path:url(#SVGID_00000057143550941893073320000001746440508578835588_);"> <g> <path class="st2" d="M125.6,176.6c4.7,0.3,9.3,3.8,12.3,6.9c2.8,2.8,5.8,5.6,8.8,8.4l1.7,1.6l-9.1,9l-1.7-1.5 c-3-2.8-6-5.8-8.9-8.8c-2-2.2-4.1-4.4-5.8-6.8c-1.3-1.8-3.2-4.8-1.5-7.2C122.7,176.9,124.2,176.6,125.6,176.6z"></path> <path class="st3" d="M125.2,179.1c3.7,0.3,7.9,3.3,11,6.3c3.1,3,8.8,8.4,8.8,8.4l-5.4,5.3C136.5,196.3,117.8,178.5,125.2,179.1 z"></path> <path class="st2" d="M120.4,180.9c4.7,0,9.6,3.1,13,5.9c2.3,1.9,4.6,3.8,6.9,5.6c1.1,0.8,1.7,2,1.8,3.5 c0.1,2.7-1.9,4.9-3.4,7.1c-0.4,0.6-1,1-1.7,1.2s-1.4,0-1.9-0.4c-3.3-2.6-6.6-5.1-9.7-7.8c-2.3-1.9-4.6-4-6.5-6.2 c-1.5-1.7-3.8-4.4-2.2-6.8C117.5,181.3,118.9,180.9,120.4,180.9z"></path> <path class="st3" d="M120.1,183.3c3.8,0,8.2,2.6,11.5,5.3c1.9,1.6,4.9,3.9,7,5.6c2.5,2-0.5,5.2-1.9,7.3 C133.3,199.1,112.6,183.3,120.1,183.3z"></path> <path class="st2" d="M136,195.4c0-0.3-0.2-1.1-0.3-1.4c-1.3-1.8-2.6-3.7-3.8-5.5c-2.8-4.2-5.5-8.5-7.8-12.9 c-1.9-3.5-3.7-7.3-4.9-11c-1.3-4-2.8-8.9-1.3-13.5c0.8-2.3,2.2-4.2,3.8-6c2-2.3,4.2-4.6,6.3-6.9c9.5-10.6,33.2-28.9,47.1-29.7 l1.8-0.1l0.4,1.8c0.8,3.3-0.8,8.7-1.9,12c-1.7,5.4-3.9,11-6.2,16.2c-2.4,5.6-4.9,11.2-7.5,16.8c-0.9,2-1.9,4-2.8,6.1 c-0.5,1-1,2.2-1.4,3.2c-0.2,0.6-0.3,1.5-0.5,2.2c-0.2,1.3-0.5,2.5-0.6,3.8c-0.5,3.3-0.8,6.7-1.2,10c-0.6,5.7-1.2,11.5-1.7,17.1 l-0.2,1.4l-1.2,0.7c-1.6,1-3.1,2-4.8,2.9c-1.5,0.8-3.2,2-4.7,2.6c-3.2,1.4-7.2-1-9.6-2.7c-1.4-0.9-2.9-2.3-2.1-4.3 c0.8-2,2.8-2,4.5-2.7C135.8,195.5,136,195.4,136,195.4z"></path> <path class="st4" d="M174.9,110.8c-12.5,0.6-35.7,18-45.2,28.8c-9.5,10.7-12.4,11.5-8.2,23.9c4.1,12.4,16.4,29.1,16.4,29.1 c3.3,7.7-8.4,4.4-3.1,7.8c1.9,1.4,5.2,3.3,7.2,2.5c2-0.8,9.1-5.3,9.1-5.3s2.5-28.9,4.1-33.7C156.9,159,177,119.5,174.9,110.8z"></path> <path class="st2" d="M144.3,162.2c-0.9-5.7-2.7-9-8.1-11.5c-3.2-1.5-5.8-1.6-9.3-1.9l3.5-0.9c3.3-0.4,7.3,0.7,9.9,2.4 c4.9,2.9,6.2,6.1,7.4,11.5c0.1,0.9-0.6,1.8-1.6,2.1C145.2,163.8,144.4,163.2,144.3,162.2z"></path> <path class="st2" d="M141.9,193.6c1.2,3.2,0.1,6.8-2.5,8.3c-2.7,1.4-5.9,0.1-7.1-3.1c-1.3-3.2-0.1-6.8,2.5-8.3 C137.5,189.1,140.7,190.4,141.9,193.6z"></path> <path class="st4" d="M140.7,194.3c-1-2.4-3.4-3.5-5.4-2.4c-2.1,1.1-2.9,3.9-2,6.4c1,2.4,3.4,3.5,5.4,2.4 C140.8,199.5,141.8,196.6,140.7,194.3z"></path> <path class="st2" d="M140.1,197.5c-0.6,1.9-2.4,2.9-4.1,2.2c-1.7-0.7-2.5-2.9-2-4.8c0.6-1.9,2.4-2.9,4.1-2.2 C139.9,193.5,140.7,195.6,140.1,197.5z"></path> <path class="st4" d="M139.5,197.3c0.5-1.6-0.2-3.3-1.6-3.8c-1.4-0.6-2.8,0.2-3.3,1.8c-0.5,1.6,0.2,3.3,1.6,3.8 C137.6,199.6,139,198.9,139.5,197.3z"></path> <path class="st2" d="M139.5,197.3c0-0.2,0.1-0.4,0.2-0.6l-4.7-2.1c-0.1,0.2-0.1,0.3-0.2,0.5c0,0.2-0.1,0.4-0.2,0.6l4.7,2.1 C139.4,197.6,139.4,197.4,139.5,197.3z"></path> <path class="st3" d="M158.6,123.8c-12.2,5.5-22.5,17.7-24.9,20.9c-1.1,1.5-1.8,2.4-2.2,3c3-0.1,6.4,1,8.8,2.3 c1,0.6,4.5,3.5,5.4,5.7C148.1,145.8,152.1,132.1,158.6,123.8z"></path> <path class="st3" d="M133.7,180c-4.8-7.1-11.2-20.5-12.7-30.1c-1.9,3.3-1.8,6.7,0.5,13.6c1.5,4.4,3.9,9.2,6.4,13.6 c0.7,1.3,1.5,2.5,2.2,3.7c1.6,2.7,3.2,5.2,4.6,7.1c0.6,0.8,1.1,1.6,1.5,2.3c0.4-0.1,0.7-0.1,1.2-0.1c1.9,0.2,3.8,1.5,4.6,3.7 c0.3,0.8,0.5,1.8,0.5,2.7c0,2.3-1.1,4.6-3,5.6h-0.1c-0.1,0.1-0.2,0.1-0.3,0.2c-0.3,0.1-0.5,0.2-0.7,0.3 c0.2,0.1,0.4,0.2,0.5,0.3c1.2,0.5,2.4,0.6,3.3,0.3c1-0.5,3.7-2,5.8-3.3c0.1-0.1,0.2-0.1,0.3-0.2c-0.1-0.1-0.1-0.3-0.2-0.3 c-0.6-1-1.3-2.1-1.9-3.2c-3.6-6.5-2.5-10.2-2.9-11.5C138.2,186.2,136,183.4,133.7,180z"></path> <path class="st5" d="M125.8,144.9c6.6-8.9,19.1-19.1,28.7-24.8c2.2-1.3,1.7-1,4-1.8c-10.4,8.5-22.3,16.6-30,27.8 c-0.4,0.7-1.4,1.2-2.1,0.8C125.6,146.6,125.3,145.8,125.8,144.9z"></path> <path class="st5" d="M147.1,149.8c2.4-9.5,9.6-22.9,16.8-29.8l3.2-2.6c-6.5,11.7-12.6,19.4-15,32.8c-0.2,1.4-1.6,2.4-3,2.3 C147.7,152.5,146.7,151.2,147.1,149.8z"></path> </g> <path class="st6" d="M161.6,213.1l9.8,3.4c0.8,0.3,1.5,0.9,1.7,1.8l11.7,48.2c0.2,0.8,0,1.6-0.5,2.2c-0.5,0.6-1.2,1-2,1H176 c-1.2,0-2.2-0.7-2.5-1.8c-5.1-17.2-10.1-34.4-15.2-51.6c-0.3-0.9,0-1.9,0.7-2.6C159.7,213,160.7,212.8,161.6,213.1z"></path> <path class="st7" d="M160.8,215.5c15.2,51.6,15.2,51.6,15.2,51.6h6.3l-11.7-48.2L160.8,215.5z"></path> <path class="st6" d="M168.2,265.2c0.1-0.3,0.1-0.5,0.2-0.8c2.1-8,9.4-10.8,15.7-5.7c3.5,2.8,5.1,7.4,5.9,11.6 c0.8,4.6,1,10.3,0.5,15c-0.2,1.4-1.4,2.4-2.7,2.4h-66.6c-0.9,0-1.6-0.4-2.2-1.1c-0.5-0.7-0.7-1.6-0.5-2.4c0.5-2,1-3.9,1.6-5.9 c2.1-7.9,10-11.5,17.3-13.4c4.2-1.1,10-0.9,14.3-0.7C156.4,264.4,163.6,264.6,168.2,265.2z"></path> <path class="st0" d="M171.1,265.1c-0.8,3.1-0.8,3.1-0.8,3.1s-4.4-0.1-7.5-0.4c-6.9-0.7-19.1-1.7-24.7-0.2 c-8,2.2-13.8,5.6-15.3,11.4c-1.6,5.9-1.6,5.9-1.6,5.9h66.6C190.4,262.5,175.1,250.1,171.1,265.1z"></path> <path class="st6" d="M150.6,264.2c3.7,1.2,7.4,2.6,10.5,5c4.6,3.7,6.5,8.9,7.3,14.6c0.1,0.4,0.1,0.8,0.1,1.2 c-0.1,1.5-1.3,2.6-2.7,2.6h-44.5c-0.9,0-1.6-0.4-2.2-1.1c-0.5-0.7-0.7-1.6-0.5-2.4c0.5-2,1-3.9,1.6-5.9 c2.1-7.9,10-11.5,17.3-13.4c3.7-1,8.6-0.9,12.4-0.8C150.1,264.1,150.3,264.1,150.6,264.2z"></path> <path class="st8" d="M149.7,266.8c-4.5-0.1-8.9,0-11.6,0.7c-8,2.2-13.8,5.6-15.3,11.4c-1.6,5.9-1.6,5.9-1.6,5.9h44.4 c0-0.2,0-0.4,0-0.6C163.9,272.3,158.1,269.6,149.7,266.8z"></path> <path class="st7" d="M146.1,284.9h19.6c0-0.2,0-0.4,0-0.6c-0.4-2.8-1-5.1-1.9-7.1c-2.6-0.5-6.1-0.4-9.3,0.7 c-3.3,1.1-6.4,3.1-8.1,6.5C146.3,284.5,146.2,284.7,146.1,284.9z"></path> <path class="st6" d="M225.4,285.5c-0.1,0-0.2,0-0.3,0c-1.4-0.1-2.4-1.3-2.4-2.7c0-0.3,0.1-0.5,0.2-0.8c0-0.6-0.2-1.5-0.3-2 c-0.5-2.6-1.1-5.1-1.7-7.7c-1.3-5.1-2.6-10.1-4-15.1c-2.3-8.4-4.7-16.6-7.2-25c-0.3-0.9,0-1.9,0.7-2.6s1.7-0.9,2.6-0.6l9.8,3.4 c0.9,0.3,1.5,1,1.7,1.9l9.7,48c0.2,0.8,0,1.6-0.5,2.1c-0.5,0.6-1.2,0.9-2,0.9L225.4,285.5L225.4,285.5z"></path> <path class="st7" d="M212.1,231.6c15.2,51.6,13.2,51.3,13.2,51.3h6.3l-9.7-48L212.1,231.6z"></path> <path class="st6" d="M219,280.6c-0.3-1.7-0.7-3.4-1.1-5.1c-0.4-1.9-0.8-4.2,0.6-5.8c0.9-1.1,2.3-1.5,3.7-1.5 c3,0,4.2,4.4,4.9,6.7c0.3,0.9,0.5,1.8,0.7,2.7l1.3-0.3l-1.4-6.9c-0.1-0.5-0.1-1,0.1-1.5c0.4-0.9,1.1-1.7,2-2.1 c2-0.8,3.7,0.5,4.8,2.2c1.4,2.1,2,6.2,2.2,9.2c6,4.6,11.9,9.5,17.3,14.7c5.7,5.6,16.3,16.8,13.7,25.6c-1.3,4.2-5,6.5-8.9,7.8 c-5.9,2-11.8,2.3-17.6-0.3c-7.4-3.5-13.1-11.4-18.6-17.3c-0.1-0.1-0.2-0.3-0.3-0.4c-1.4-2.3-3-4.4-4.4-6.7 c-1.9-3-4.5-7.5-3.7-11.2C215,286.8,216.6,283.3,219,280.6z"></path> <path class="st0" d="M221.8,281.5c-3.1,2.9-4.5,6.9-5,9.5c-0.9,4.4,5.4,11.9,7.8,16c10,10.9,16.8,22.6,33.5,17 c23.4-7.8-14.1-37.2-23.7-44.4c0,0-0.3-6.7-1.9-9.1c-1.6-2.4-2.3-0.6-2.3-0.6l1.9,9.3l-6.3,1.6c0,0-2-9.9-3.6-9.9 C218.4,270.7,220.9,274.8,221.8,281.5z"></path> <path class="st6" d="M253.7,292.5c5.7,3.9,11.4,9.3,13.9,15.9c1.8,4.7,1.9,10-1.2,14.3c-1.8,2.5-4.5,4.2-7.5,5 c-5.7,1.6-11.6,1-16.9-1.4c-8.7-3.7-15.6-11.6-20.7-19.3c-0.6-1-0.5-2.2,0.2-3.1c7.8-9.3,19.1-15.2,31.4-11.9 C253.2,292.3,253.5,292.4,253.7,292.5z"></path> <path class="st7" d="M223.6,305.7c13.6,20.7,26.9,21.8,34.7,19.6c10.7-3,12.5-17.8-6.1-30.6 C241.1,291.7,230.8,297.2,223.6,305.7z"></path> <path class="st6" d="M139.4,285.4c0.3-1.9,0.8-3.5,1.6-4.9c2.1-4.1,5.7-6.5,9.6-7.7c3.8-1.2,7.8-1.3,10.8-0.7 c1.5,0.3,2.7,0.7,3.6,1.4l-1.3,2.4c-0.7-0.4-1.6-0.8-2.8-1c-2.7-0.5-6.3-0.5-9.7,0.6c-3.3,1.1-6.4,3.1-8.1,6.5 c-0.6,1.2-1,2.5-1.3,4.1L139.4,285.4z"></path> <path class="st6" d="M125.5,285.8c0-0.4,0-0.8,0.1-1.2c0.6-4.8,3.6-9.4,8.7-12.7c4.9-3.1,11.8-5,20.2-4.7 c1.4,0.1,2.8,0.2,4.2,0.3l-0.3,2.7c-1.4-0.2-2.7-0.3-4-0.3c-7.7-0.3-14.1,1.4-18.6,4.3c-4.3,2.7-6.9,6.6-7.4,10.7 c0,0.4-0.1,0.6-0.1,0.9L125.5,285.8z"></path> <path class="st6" d="M246.6,325.7c1.4-4.1,0.3-8.8-1.9-13.2c-3.6-7.1-9.6-13.2-12.2-14.8l1.4-2.2c2.8,1.7,9.4,8.3,13.2,15.8 c2.5,4.9,3.7,10.3,2.1,15.2L246.6,325.7z"></path> <path class="st6" d="M259.1,325.2c1.6-5.1,0.4-10.6-2.1-15.5c-3.8-7.6-11.1-14.8-14.1-16.2l1.9-1.4c3.3,1.6,10.5,8.3,14.5,16.4 c2.7,5.4,4.1,11.6,2.2,17.4L259.1,325.2z"></path> <path class="st6" d="M185.2,273.4c0.5,4-2.4,7.5-6.4,7.9c-4,0.4-7.5-2.4-7.9-6.4c-0.5-4,2.4-7.5,6.4-7.9 C181.2,266.6,184.7,269.4,185.2,273.4z"></path> <path class="st0" d="M183.5,273.6c-0.3-3-3-5.2-6.1-4.8c-3,0.3-5.2,3-4.8,6.1c0.3,3,3,5.2,6.1,4.8 C181.6,279.2,183.8,276.6,183.5,273.6z"></path> <path class="st6" d="M181.4,276.9c-1.5,1.9-4.2,2.2-6.1,0.7s-2.2-4.2-0.7-6.1s4.2-2.2,6.1-0.7S182.9,275,181.4,276.9z"></path> <path class="st0" d="M180.7,276.3c1.2-1.5,0.9-3.7-0.5-4.8c-1.5-1.2-3.7-0.9-4.8,0.5c-1.2,1.5-0.9,3.7,0.5,4.8 C177.4,278,179.5,277.8,180.7,276.3z"></path> <path class="st6" d="M180.7,276.3c0.1-0.2,0.3-0.4,0.4-0.5l-5.3-4.2c-0.2,0.1-0.3,0.3-0.5,0.5s-0.3,0.4-0.4,0.5l5.3,4.2 C180.4,276.7,180.6,276.5,180.7,276.3z"></path> <path class="st6" d="M226.7,289.3c-0.2,4.1-3.1,7.1-6.4,6.8c-3.3-0.4-5.7-4-5.5-8.1s3.1-7.1,6.4-6.8 C224.4,281.6,226.9,285.2,226.7,289.3z"></path> <path class="st0" d="M225.2,289.2c0.2-3.1-1.7-5.9-4.2-6.2c-2.5-0.3-4.7,2-4.8,5.2c-0.2,3.1,1.7,5.9,4.2,6.2 C222.9,294.6,225,292.3,225.2,289.2z"></path> <path class="st6" d="M222.1,292.1c-1.5,1.6-3.7,1.4-5-0.5c-1.3-1.9-1.1-4.7,0.4-6.3c1.5-1.6,3.7-1.4,5,0.5 C223.8,287.7,223.6,290.5,222.1,292.1z"></path> <path class="st0" d="M221.7,291.4c1.2-1.3,1.3-3.6,0.3-5c-1-1.5-2.8-1.7-4-0.5c-1.2,1.3-1.3,3.6-0.3,5 C218.7,292.5,220.5,292.7,221.7,291.4z"></path> <path class="st6" d="M221.7,291.4c0.1-0.2,0.3-0.3,0.4-0.5l-3.7-5.4c-0.2,0.1-0.3,0.2-0.5,0.4s-0.3,0.3-0.4,0.5l3.7,5.4 C221.4,291.7,221.5,291.6,221.7,291.4z"></path> <path class="st7" d="M132,284.9h7.6c0.3-1.6,0.8-3.1,1.5-4.4c2.1-4.1,5.7-6.5,9.6-7.7c3.2-1,6.6-1.3,9.3-0.9 c-0.2-0.2-0.3-0.3-0.5-0.4c-0.6,0-1.2-0.1-1.7-0.1c-7.7-0.3-14.1,1.4-18.6,4.3C135.3,278.1,132.8,281.3,132,284.9z"></path> <path class="st8" d="M244.9,321.6c-0.9-6.6-7-14.7-14.9-22c-2.3,1.7-4.4,3.7-6.3,6c-0.1,0.1-0.1,0.1-0.2,0.2 c7.5,11.4,14.9,16.9,21.4,19.1c0,0,0-0.1,0-0.2C245.1,323.8,245,322.7,244.9,321.6z"></path> <path class="st8" d="M257.3,318.7c-0.7-8.2-7.9-18.9-15.3-24.6c-2.4,0.4-4.7,1.2-7,2.3c3.2,2.6,8.6,8.4,11.9,14.9 c2.3,4.5,3.5,9.4,2.4,14c0,0.2-0.1,0.3-0.1,0.5c2.9,0.4,5.6,0.2,7.9-0.3c0.1-0.4,0.2-0.9,0.2-1.4 C257.5,322.7,257.5,320.9,257.3,318.7z"></path> <path class="st8" d="M264.2,315.2c-0.5-8.5-6.6-14-14.2-21c-0.8-0.1-1.7-0.2-2.6-0.3c3.7,2.8,8.8,8.3,11.9,14.7 c2.1,4.2,3.4,8.7,3,13.2c0,0.5-0.1,1.1-0.2,1.6c0.4-0.3,0.8-0.6,1.2-1c0.2-0.6,0.4-1.3,0.5-2C264.2,319,264.3,317.2,264.2,315.2 z"></path> <path class="st8" d="M222.4,268.2c1.8,0.1,2.9,1.8,3.6,3.6c-1.2-4.6-4-16-6.6-25.3c-1.2-0.1-2,0.1-3-0.1 C218.7,254.2,221.2,263.6,222.4,268.2z"></path> <path class="st8" d="M175.4,256.4c-1.3-4.3-3-10.3-5.5-18.8c-0.1,0-0.2,0-0.3,0c-0.8,0-1.6-0.1-2.4-0.2c2.7,9.2,4.6,15.6,5.9,20 C173.9,256.9,174.6,256.6,175.4,256.4z"></path> <path class="st9" d="M172.9,265.8c0.5-1.4,1.1-2.4,1.7-3.2c1.7-2.1,4-2.4,6.2-1.3c1.2,0.6,2.3,1.6,3.3,2.9 c0.2,0.2,0.3,0.4,0.5,0.6c-0.2-0.3-0.4-0.6-0.5-0.9c-1.1-1.8-2.4-3.2-3.7-4.1c-2.3-1.6-4.7-1.7-6.7,0.1 c-0.7,0.6-1.4,1.6-1.9,2.7c-0.3,0.7-0.6,1.6-0.9,2.5c-0.8,3.1-0.8,3.1-0.8,3.1s-4.4-0.1-7.5-0.4c-1.4-0.1-2.9-0.3-4.6-0.4 c1,0.5,1.9,1.2,2.8,1.9c0.2,0.2,0.4,0.3,0.6,0.5c0.9,0.1,1.7,0.2,2.5,0.3c3.1,0.3,7.5,0.4,7.5,0.4s0,0,0.8-3.1 C172.6,266.7,172.8,266.2,172.9,265.8z"></path> <path class="st9" d="M248.8,291.4c-5.8-5.2-11.5-9.7-14.5-11.9c0,0-0.3-6.7-1.9-9.1c-0.4-0.5-0.6-0.8-0.9-1 c-0.2-0.1-0.4-0.2-0.5-0.2c2,11,2,11,2,11l0.9,0.7l11.8,10.3C246.7,291.2,247.8,291.3,248.8,291.4z"></path> <path class="st6" d="M90.8,285.3H210c0.9,0,1.6,0.7,1.6,1.6l0,0c0,0.9-0.7,1.6-1.6,1.6H90.8c-0.9,0-1.6-0.7-1.6-1.6l0,0 C89.2,286.1,90,285.3,90.8,285.3z"></path> <path class="st6" d="M253.5,285.3h20.8c0.9,0,1.6,0.7,1.6,1.6l0,0c0,0.9-0.7,1.6-1.6,1.6h-20.8c-0.9,0-1.6-0.7-1.6-1.6l0,0 C251.9,286.1,252.6,285.3,253.5,285.3z"></path> <path class="st6" d="M170.3,222.1c6.4,0.4,11.3,4.2,11,8.5c-0.3,4.3-5.6,7.6-11.9,7.2c-6.4-0.4-11.3-4.2-11-8.5 C158.6,224.9,163.9,221.7,170.3,222.1z"></path> <path class="st6" d="M170.1,224.6c4.9,0.3,8.8,2.9,8.6,5.8s-4.3,5-9.2,4.7s-8.8-2.9-8.6-5.8C161,226.5,165.2,224.3,170.1,224.6z "></path> <path class="st6" d="M168.1,180.6c0.7,0,1.5,0.1,2.2,0.3c5.7,1.1,10.6,4.8,14,9.4c3.7,5.1,5.8,11.5,6.1,17.8 c0.2,5.2-0.7,10.5-3.1,15.1c-2.2,4.1-5.5,7.5-9.8,9.3c-2.4,1-4.9,1.4-7.4,1.3c-0.7,0-1.5-0.1-2.2-0.3c-5.7-1.1-10.6-4.8-14-9.4 c-3.7-5.1-5.8-11.5-6.1-17.8c-0.2-5.2,0.7-10.5,3.1-15.1c2.2-4.1,5.5-7.5,9.8-9.3C163,180.9,165.6,180.5,168.1,180.6z"></path> <path class="st10" d="M168,183.2c-10.4-0.6-18.2,9.6-17.6,22.9c0.6,13.2,9.5,24.5,19.9,25.1c10.4,0.6,18.2-9.6,17.6-22.9 C187.2,195,178.3,183.8,168,183.2z"></path> <path class="st0" d="M190.8,110.1c-24.8-1.5-38.2,19.9-42.4,48.9c6.8,3.3,5.2,3.4,5.2,3.4l10.2-10.4l24.8,3.6 c0,0,7,14.6,11.6,14.9c4.6,0.3,31.2-2.2,39.8-9c0,0,0.1-0.1,0.1-0.1C235.2,133.4,215.6,111.5,190.8,110.1z"></path> <path class="st6" d="M227.3,165.9c-1.3-1.1-2.5-2.2-3.7-3.3c-4.6-4.3-9-9.3-12.2-14.8c-3.2-5.5,12.1-5.6,12.7-12 c0-0.1,0.1-2.3,0.2-2.4c0.8-4.4-17.2-13.8-13.1-16c-3.2-1.4,5.1-2.4,16.8,2.7c17.3,7.6,44.5,37.2,46.9,56.6 c-0.1,6.4-9.8,10.6-14.9,12.7c-7.6,3-16.5,4.6-24.6,5.2c-4.4,0.3-8.8,0.4-13.2,0.2c-2.6-0.2-5.3-0.3-7.8,0c-0.2,0-0.6,0.1-1,0.1 c0.2,0.2,0.4,0.3,0.5,0.4c1.1,0.6,1.6,2,1.1,3.2c-0.5,1.2-1.7,1.8-3,1.6c-1.7-0.4-3.7-1.4-5.1-2.4c-3.4-2.4-5.4-5.8-5.8-9.9 c-0.3-3.3,2.3-6.3,4.6-8.4c2.8-2.6,6.2-4.8,9.4-6.8c3.6-2.1,7.2-4.1,10.9-5.9C226.4,166.3,226.8,166.1,227.3,165.9z"></path> <path class="st0" d="M210.9,130.4c1-5.8,0.1-9.8,4.2-10.6c6.1-1.2,18.6,3.9,28.1,13.9c15.8,16.6,28.7,34.1,28.4,44 c-0.2,9.8-26.9,16.3-47.6,15.1c-20.7-1.2-9.8,5.3-9.8,5.3s-8.3-1.9-8.9-10s28.6-21,28.6-21S209.1,149.3,210.9,130.4z"></path> <path class="st11" d="M229.7,123.5c4.6,2.4,9.3,5.8,13.5,10.2c13.7,14.3,25.1,29.4,27.8,39.6c-2.6,0.4-4.3,0.6-4.3,0.6 s0,0-6.5-13C254.2,149,239.2,129.8,229.7,123.5z"></path> <path class="st12" d="M218.7,119.8c2.8,0.3,6.3,1.4,9.9,3.2c-5.2,5.5-7.8,14.5-0.6,24s-2.6,7.4-7.1,8c-2.5-2.9-4.8-6.2-6.7-9.8 C214.7,136.9,216.2,125.3,218.7,119.8z"></path> <path class="st6" d="M158.7,217.8c-2.9-2.6-5.6-5.4-8-8.4c1,6.8,4.3,12.9,8.7,16.9c0.6,0.6,1.3,1.1,2,1.6 c0.3,0.2,0.6,0.4,0.9,0.6c1,0.6,2,1.2,3,1.6c1.6,0.6,3.2,1,4.9,1.1c0,0,0.1,0,0.1,0c-2.1-1-4-2.5-5.8-4.2 c-0.3-0.3-0.6-0.7-0.9-1c-0.5-0.6-1.1-1.3-1.6-2c-0.5-0.6-0.9-1.3-1.3-2C160,220.6,159.3,219.2,158.7,217.8z"></path> <path class="st6" d="M193.1,230.5c-12.9,0.1-22.4-3.7-31.4-13.2c11.8,7.3,17,11,31.4,10.2c0.8,0,1.5,0.6,1.5,1.5 C194.6,229.9,193.9,230.5,193.1,230.5z"></path> <path class="st6" d="M230.3,242.5c-0.1,1-0.5,2.1-1.3,2.6c-3.1,1.9-6.6,2.9-10.2,3.3c-3.9,0.4-9,0.5-12.9,0.2 c-1.5-0.1-3.1-0.3-4.6-0.6l-0.6-0.1l-15.2-20.4l1.4,17.7c-3.2,0.5-8.1,1.7-11.3,1.3l-0.6-1.2c-0.2-0.5-0.4-0.9-0.5-1.4 c-0.2,0.3-0.3,0.6-0.4,1l-0.3,1.2l-1.3,0.2c-5.8,0.7-13.8,0.6-19.3-1.2l-1.1-0.3l-0.2-1.1c-3.1-18.2-5.3-36.9-8.5-55.1l-0.6-3.6 l3.3,1.7c16,8.2,34.5,13.3,52.4,9.9c4.7-0.9,9.4-2.4,13.7-4.5c1.5-0.7,3.3-1.8,4.7-2.8l2-1.6l6.6,16.6l10.5,35.6l-0.5,0.7 c-0.4,0.5-2.1,1.5-2.6,1.9c-0.2,0.2-0.5,0.4-0.8,0.5C231.3,243,230.8,242.8,230.3,242.5z"></path> <path class="st13" d="M145.4,188.3c3.1,18.2,6.3,36.5,9.4,54.7c4.5,1.5,10.8,2.2,17.2,1.4c0.5-2.2,2.4-3.8,2.9-5.9 c1,1.9,0.4,4,1.4,5.9c2.8-0.4,5.9-0.3,8.6-0.7l-1.7-22l19.7,24.5c0,0,6.3,1.4,15.7,0.4c4-0.4,7.1-1.7,9.4-3.1 c0.6-0.4,0.4-5.9,0.9-6.1c0.4-0.1,2,3.9,2.4,3.6c0.8-0.7,1.3-1.3,1.3-1.3l-9-34.9l-5.6-14.1 C218.1,190.6,191.6,211.8,145.4,188.3z"></path> <path class="st14" d="M147.2,198.7l1.6,9.6c14.4,8.7,23.7,8.5,25.3,10.6c1.6,2.2,7.5,10.5,5.5,10.4s-18.3-6.1-19.3-6.1 s11.6,7.7,16.3,9.7c4.7,2,3.1,4.3,3.5,5.5s0.6,5.3,0.6,5.3l0.1,0.2c1.5-0.1,3-0.2,4.4-0.4l-1.7-22l0.3,0.4l-1.1-3.3l20.4-2.2 c0,0,10,15.5,16.9,22.4c1.8,1.8,3.7,3.8,5.6,5.9c1-0.4,1.9-0.9,2.7-1.4c0.6-0.4,0.4-5.9,0.9-6.1c0.4-0.1,2,3.9,2.4,3.6 c0.8-0.7,1.3-1.3,1.3-1.3l-9.1-35l-5.6-14.1c0,0-21.8,17.5-60.4,3.1C153,195.2,149.4,196.9,147.2,198.7z"></path> <path class="st6" d="M183.7,227.3c-1.9-4.8-2.8-13.3-2.3-13.3c0.5-0.1,3.5,12.3,3.6,13.1C186.8,235.4,185.7,232.1,183.7,227.3z"></path> <path class="st6" d="M182.6,223.6c-1.7-1.6-3.6-2.9-5.4-6.5c0,0,4.8,4,6.4,5.4c0.4,0.4,2.4,1.9,1.4,2.5 C184.2,225.8,183.5,224.5,182.6,223.6z"></path> <path class="st6" d="M155,128c1.9-2.8,3.6-5.8,5.4-8.6c1.6-2.6,3.5-5.3,5.5-7.6c1.6-1.8,4-4.1,6.6-3.7c2,0.3,2.1,1.8,1.8,3.1 c-0.1,0.3-0.1,0.5-0.2,0.8c-0.2,0.8-0.4,1.6-0.6,2.4c-0.2,0.8-0.4,1.7-0.6,2.6c-0.6,3.3-1.5,6.5-1.6,9.9 c-0.3,8.3,4.4,11.3,12.4,11.8c2,0.1,4-0.1,5.9-0.6c6.9-1.9,13-7.6,17.9-12.5c3.1-3,6.2-6.1,9.4-9l0.9-0.8l9.3,2.8 c2.3,0.7,2.4,3.7,0.3,4.8c-4.1,2.1-6.5,8.7-7.4,12.9c-0.9,4-1.4,9.4-0.2,13.4c0.3,1.2,0.8,2.2,1.4,3.2c0.5,0.9,1.1,1.8,1.5,2.7 c0.6,1.5,0.8,3,0.6,4.6l-2.9,23.8l9.4,17.8l-1.8,1.1c-0.6,0.4-1.3,1-1.9,1.5c-0.9,0.7-1.8,1.5-2.6,2.2c-1.6,1.3-3.5,2.7-5.3,3.5 c-21.9,8.4-55.1,7.9-75.1-6.1c-5.5-3.8-3.1-4-1.4-8.7c0.1-0.3,0.3-0.8,0.4-1.2c0.5-8.8,0.6-17.6,1.8-26.4 c1.3-9.6,2.4-19.2,5.4-28.4c0.4-1.3,0.6-2.6,0.8-4c0.2-1.4,0.3-2.8,0.8-4.1c0.5-1.3,1.8-1.9,3-2.5 C154.1,128.4,154.7,128.2,155,128z"></path> <path class="st13" d="M156.7,129.4c-0.5,0.7-3.5,1.5-3.9,2.4c-0.8,2-0.5,4.7-1.6,8c-2.7,8.3-4,16.9-5.3,26.8 c-1.2,9.1-1.5,19.9-2,27.9c-0.1,1.2-1,2.6-1,3.7c-0.1,2.4-0.9,2.1,0.9,3.3c19.1,13.7,51.8,14.3,73.3,6.1 c2.9-1.2,7.3-5.5,9.6-6.9l-8.7-16.5l3-24.5c0.5-4.1-1.9-4.7-3.3-9.7c-2.4-8.2,0.9-24.9,8.7-28.9c0.4-0.2,0.5-0.5,0.1-0.6 l-8.1-2.5c0,0-4.8,4.4-9.4,8.9c-6.7,6.7-15.3,14.4-25.5,13.8c-19.4-1.1-14.3-17.3-12.9-24.4c0.4-1.8,1.6-6.1,1.6-6.1 C167.9,109.6,160.8,123.4,156.7,129.4z"></path> <path class="st14" d="M169.5,211.7c16.2,2.9,34.2,1.3,47.7-4c2.9-1.2,7.3-5.5,9.6-6.9l-8.7-16.5l3-24.5c0.5-4.1-1.9-4.7-3.3-9.7 c-0.4-1.3-0.6-2.7-0.7-4.3c-1.2-0.4-1.8-0.5-1.8-0.5c-5.5,23.5-13.6,29-16.8,30.8c-3.2,1.9-18.4,2.4-28.7,0 c-10.2-2.4-20.4-6-20.4-6s11.3,10.4,22.3,11.6c11,1.2,28.3-1.5,27.9,2.1c-0.4,3.6-6.3,5.5-12.2,9.4s8.3,0.4,13.8-2.4 c5.5-2.7-1.4,21-16.9,20.8C168.6,211.2,174.4,211.5,169.5,211.7z"></path> <path class="st15" d="M183.5,140.8c-9.7-0.5-13.2-4.8-14.2-9.8c-0.1-0.6-0.2-1.2-0.3-1.8c-0.4-4.6,0.9-9.6,1.6-12.7 c0.1-0.4,0.2-0.9,0.4-1.6c0.2-0.6,0.3-1.4,0.5-2c0-0.1,0.1-0.3,0.1-0.4c-0.1,0.1-0.1,0.2-0.2,0.3c-0.6,0.9-1.2,1.9-1.7,2.9 c-2.3,4.5-3.3,9.4-3.1,14.3c0,0.7,0.1,1.5,0.1,2.3c0.6,6.4,6.2,9.3,11.3,10.4c8.1,1.8,17.6-1.5,24.3-6.8c3-2.4,6.2-5.2,9.1-8 c1.4-1.4,2.7-2.7,4.1-4c0.9-0.8,1.7-1.7,2.6-2.5c0.5-0.4,0.9-0.8,1.4-1.3c0.4-0.4,0.8-0.8,1.3-1.2l-2-0.6l-0.2-0.1 c0,0-0.7,0.6-1.8,1.7c-0.1,0.1-0.1,0.1-0.2,0.2c-0.7,0.7-1.6,1.5-2.6,2.5c-0.6,0.6-1.4,1.3-2.1,2c-0.2,0.2-0.5,0.4-0.7,0.6 c-0.6,0.6-1.4,1.3-2,2C202.3,133.7,193.7,141.4,183.5,140.8z"></path> <path class="st15" d="M216.9,141.9c0.3-4.7,1.5-9.8,3.5-14c0.5-1,1.1-2,1.7-2.9c1-1.4,2.1-2.6,3.4-3.4c0.3-0.2,0.5-0.3,0.8-0.5 c0.4-0.2,0.5-0.5,0.1-0.6l-2.7-0.8c-0.4,0.3-0.7,0.6-1.1,1c-0.8,0.8-1.6,1.7-2.2,2.7c-0.6,0.9-1.3,1.9-1.8,3 c-1.6,2.9-2.8,6.3-3.7,9.8c-0.6,2.4-0.9,4.8-1,7.1c0,0.4,0,0.9,0,1.3c0.1,4.3,1.3,8.3,3.6,11.7c0.1,0.1,0.2,0.2,0.2,0.3 c1.2,1.7,2.3,3.1,3.2,4.2l0.1-0.7l0-0.3c0.5-3.8-1.5-4.5-2.9-8.5c-0.1-0.4-0.3-0.8-0.4-1.3C217,147.8,216.8,144.9,216.9,141.9z"></path> <g> <path class="st6" d="M245.5,50.4c-15.3,21.1-35.3,44.2-38.9,67.5c-1.5,9.3-20.2,5.9-26.4,1.6c-12.6-8.7,18.4-43.7,37.1-59.4 c5.3-4.5,10.2-6.9,12.1-7.3C236.7,51.3,245.3,51.6,245.5,50.4z"></path> <path class="st6" d="M240.5,53.6c-2.7,0.2-5.4,0.4-8.1,0.8c-0.8,0.1-1.7,0.3-2.5,0.5c-1.2,0.3-3.1,1.3-4.1,1.9 c-2.5,1.4-4.8,3.1-7,5c-6.9,5.8-13.5,12.4-19.4,19.1c-3.1,3.5-6.1,7.1-8.9,10.9c-2.5,3.3-4.9,6.8-6.9,10.4 c-1.8,3.2-5.4,10.5-3.2,14.2c0.3,0.5,0.8,1,1.3,1.4c2.7,1.8,7.1,3.1,10.4,3.6c3.5,0.5,11.9,1.2,12.7-3.7 c1.4-8.6,4.7-16.8,8.8-24.4c4.4-8.2,9.7-16,15.2-23.4C232.4,64.3,236.5,59,240.5,53.6z"></path> <path class="st0" d="M214.8,65.1c1.9,0.5,4.2,1.3,6.6,2.4c2.1,1,4.2,2.2,5.9,3.8c-0.3,0.5-0.7,0.9-1,1.4 c-1.7-1.5-3.7-2.7-5.7-3.6c-2.8-1.4-5.5-2.2-7.4-2.6C213.8,66,214.3,65.6,214.8,65.1L214.8,65.1z M207.4,72.2 c-0.5,0.5-1,1-1.5,1.5c2.2,0.2,4.6,0.9,6.9,2.1c2.6,1.3,5.2,3.1,7.7,5.4c0.3-0.5,0.6-1,0.9-1.5c-2.5-2.4-5.2-4.2-7.9-5.5 C211.5,73.3,209.4,72.6,207.4,72.2L207.4,72.2z M198.7,81.5c-0.4,0.5-0.8,1-1.3,1.5c3.2,0.7,6.4,1.8,9.3,3.1 c2.8,1.3,5.4,2.8,7.9,4.7c0.3-0.5,0.5-1,0.8-1.5c-2.6-1.9-5.3-3.5-8.1-4.7C204.6,83.2,201.7,82.2,198.7,81.5L198.7,81.5z M190.9,90.8c-0.2,0.3-0.4,0.5-0.6,0.8c-0.1,0.2-0.3,0.3-0.4,0.5c1.6,0.9,3.9,1.9,6.4,3c4.6,1.9,10.1,3.8,13.5,4.9 c0.2-0.5,0.5-1,0.7-1.6c-3.3-1-8.9-3-13.6-4.9C194.6,92.6,192.4,91.6,190.9,90.8L190.9,90.8z M184.7,100 c1.9,1.8,5.4,3.5,9.4,4.8c4.6,1.6,9.7,2.6,13.1,2.5c-0.2,0.5-0.4,1.2-0.5,1.7c-3.6,0-8.6-1-13.1-2.5c-3.9-1.3-7.5-3-9.7-4.9 C184.1,101,184.4,100.5,184.7,100z"></path> <g> <path class="st6" d="M181.8,106.4c-0.4,0.7-0.2,2,0,2.7c0.6,0.8,3.1,2,4,2.3c2.8,1.1,6,1.7,9.1,1.9c1.4,0.1,2.8,0,4.2-0.1 c1.8-0.2,6.3-0.8,7.2-2.7c0.1-0.2,0.1-0.3,0.2-0.5c0.1-0.5,0.1-1,0.2-1.5c0-0.3,0-0.5,0.1-0.8c0.2-1.4,1.1-2.4,2.6-2.5 c2.4-0.1,4.7,0.6,6.5,2.3c2.1,1.9,2.9,4.7,2.6,7.5c-0.4,3.2-2.2,5.9-4.8,7.8c-5,3.6-11.9,5-18,5.1c-5.1,0.1-10.6-0.7-15.3-2.6 c-4-1.6-8.2-4.4-9.4-8.7c-0.3-1.1-0.4-2.3-0.3-3.4c0.5-5.7,2.3-9.8,8.7-10.8c1.1-0.2,2.6-0.3,3.2,0.6 C183,104,182.4,105.6,181.8,106.4L181.8,106.4z"></path> <path class="st0" d="M179.6,105.1c-5.1,0.7-6.1,3.9-6.5,8.5c-1,11.3,26.7,16.1,38.8,7.3c6.6-4.8,3.8-13.3-2.6-12.9 c-0.2,0,0,2.3-0.7,3.8c-1.7,3.6-8.7,4.5-13.9,4.3c-8-0.4-14.9-3.7-15.5-6C178.5,106.7,179.6,105.1,179.6,105.1z"></path> <path class="st6" d="M177.1,112.9c0.9,0,1.7,0.8,1.6,1.7c0,0.9-0.8,1.6-1.8,1.6c-0.9,0-1.7-0.8-1.6-1.7 C175.3,113.6,176.1,112.9,177.1,112.9L177.1,112.9z M211.3,114.6c0.9,0,1.7,0.8,1.6,1.7c0,0.9-0.8,1.6-1.8,1.6 c-0.9,0-1.7-0.8-1.6-1.7C209.5,115.4,210.3,114.6,211.3,114.6L211.3,114.6z M205.2,118c0.9,0,1.7,0.8,1.6,1.7 c0,0.9-0.8,1.6-1.8,1.6c-0.9,0-1.7-0.8-1.6-1.7C203.5,118.7,204.3,118,205.2,118L205.2,118z M197.8,119.4 c0.9,0,1.7,0.8,1.6,1.7c0,0.9-0.8,1.6-1.8,1.6c-0.9,0-1.7-0.8-1.6-1.7C196.1,120.1,196.9,119.4,197.8,119.4L197.8,119.4z M189.9,118.8c0.9,0,1.7,0.8,1.6,1.7c0,0.9-0.8,1.6-1.8,1.6c-0.9,0-1.7-0.8-1.6-1.7C188.1,119.5,188.9,118.8,189.9,118.8 L189.9,118.8z M182.7,116.5c0.9,0,1.7,0.8,1.6,1.7c0,0.9-0.8,1.6-1.8,1.6c-0.9,0-1.7-0.8-1.6-1.7S181.7,116.5,182.7,116.5z"></path> <path class="st9" d="M179.2,107.9c-1,8.1,21.5,10.7,28.4,6.1l0.6-0.4c-3.3,6.9-32.9,6.6-31.9-6.1c0.1-0.7,0.9-1.3,1.7-1.2 C178.8,106.4,179.3,107.2,179.2,107.9z"></path> </g> </g> <g> <path class="st6" d="M216.9,2.1c17.6-0.9,32.6,12.6,33.6,30.2c0.9,17.6-12.6,32.6-30.2,33.6c-17.6,0.9-32.6-12.6-33.6-30.2 C185.8,18.1,199.3,3.1,216.9,2.1z"></path> <path class="st10" d="M217,4.7c-16.2,0.8-28.6,14.7-27.7,30.8c0.8,16.2,14.7,28.6,30.8,27.7c16.2-0.8,28.6-14.7,27.7-30.8 C247,16.3,233.3,3.9,217,4.7z"></path> <path class="st0" d="M217,4.7c-14,0.7-25.2,11.2-27.4,24.5c2.8,14,15.6,24.3,30.3,23.5c14-0.7,25.2-11.2,27.4-24.5 C244.5,14.2,231.8,4,217,4.7z"></path> <path class="st6" d="M193.7,16.3c-4.3,5.4-5.5,15.3-5.3,19.3c0.2,4.1,1,1.3,1.1,1.9c6.1-6.7,8.2-4.8,11.2-3.2 c3.2,1.7,4.1,7.6,12.5,8.5c8.5,0.8,18.8-12.9,12.5-19.2c-5-5-18.4-8.8-28.3-7.9C196.9,15.6,194.2,16.2,193.7,16.3z"></path> <path class="st0" d="M218.1,27c-2.6,0.1-4.6,2.4-4.5,5s2.4,4.6,5,4.5c2.6-0.1,4.6-2.4,4.5-5C223,28.8,220.8,26.8,218.1,27z"></path> <path class="st6" d="M218.9,47.2c0.8,0.2,2.9,0.1,3.8,0.1c2.4,0,6.5-0.1,7.4,2.7c0.2,0.6,0.2,1.4,0,2c-1,2.8-5.3,5.2-7.8,6.6 c-4.2,2.3-8.7,4.2-13.1,5.9c-2.9,1.2-5.9,2.3-8.9,3.3c-7.3,2.6-14.4,4.9-22.3,4.1c-2.3-0.2-4.8-0.9-5.8-3.3 c-0.8-2.1,0.2-4.2,1.4-5.9c1.5-2,3.4-3.9,5.2-5.6c3.4-3.1,8.5-7.9,10.3-12.3c1-2.5,2.4-5.2,4.2-7.3c1.6-1.8,3.6-3.3,6-3.1 c4,0.2,6.1,4.5,7.3,7.7C208.1,46.7,215.2,45.5,218.9,47.2z"></path> <path class="st7" d="M204.1,43.1c2.2,6.3,10.5,4.8,13.8,6.5c1.6,0.8,10.5-0.4,9.8,1.6c-1.3,3.8-16.7,10.2-28.3,14.2 c-6.9,2.4-13.8,4.7-21.2,4c-6.2-0.6-4.3-4.2,2.3-10.3c6.8-6.2,9.6-10.1,10.9-13.2C195.5,36.1,200.7,33.5,204.1,43.1z"></path> <path class="st6" d="M219.7,49.8c-0.2,1.4-1.5,2.5-2.5,3.4c-1.7,1.4-3.8,2.7-5.7,3.8c-5.7,3.5-11.8,6.6-17.9,9.2 c-6.3,2.7-13.9,5.7-20.7,6.5c-3.2,0.4-9.3,1.1-10.9-2.7c-1.1-2.8,1.4-5.8,3.2-7.7c2.4-2.5,5-4.9,7.6-7.2 c0.6-0.5,1.2-1.1,1.8-1.6c2.9-2.7,11.1-10.1,12.6-13.7c0.9-2.3,2.3-4.7,4.1-6.5c1.6-1.6,3.6-2.6,5.8-2.5c1.2,0.1,2.2,0.4,3.2,1 c1.8,1.1,3.4,2.4,4.9,3.8c1.2,1,2.3,2.2,3.5,3.1c1.4,1,2.8,1.6,4.5,1.8c2.8,0.4,6.1-0.2,8.8-0.8c1.8-0.4,4.2-0.7,5.1,1.4 c0.8,1.8-0.5,3.3-1.7,4.4c-0.9,0.8-1.9,1.6-2.9,2.3c-0.7,0.5-1.5,1.1-2.1,1.6C220.1,49.5,219.9,49.6,219.7,49.8z"></path> <path class="st8" d="M216.4,50.5c-4.6,4.5-29.6,18-43.8,19.7c-16.1,2-5.1-6.7,3.8-14.8c6.8-6.2,11.9-11.5,13.2-14.6 c2.6-6.4,6.3-8.7,9.4-6.8c8,4.8,8.1,11.9,23.6,8.2C228.9,40.5,218.2,48.6,216.4,50.5z"></path> <path class="st6" d="M224.6,38.8c4.2-0.2,7.8,3,8,7.2c0.2,4.2-3,7.8-7.2,8c-4.2,0.2-7.8-3-8-7.2 C217.1,42.6,220.3,39.1,224.6,38.8z"></path> <g> <path class="st0" d="M224.7,40.6c-3.2,0.2-5.7,2.9-5.5,6.1c0.2,3.2,2.9,5.7,6.1,5.5c3.2-0.2,5.7-2.9,5.5-6.1 C230.6,42.9,227.8,40.5,224.7,40.6z"></path> <path class="st6" d="M228,43.1c1.9,1.7,2,4.6,0.3,6.5s-4.6,2-6.5,0.3s-2-4.6-0.3-6.5C223.2,41.5,226.1,41.3,228,43.1z"></path> <path class="st0" d="M227.4,43.7c-1.5-1.4-3.8-1.3-5.2,0.3s-1.3,3.8,0.3,5.2s3.8,1.3,5.2-0.3C229,47.4,228.9,45.1,227.4,43.7z "></path> <path class="st6" d="M227.4,43.7c-0.2-0.2-0.4-0.3-0.6-0.4l-4.8,5.3c0.1,0.2,0.3,0.4,0.5,0.5s0.4,0.3,0.6,0.4l4.8-5.3 C227.7,44.1,227.6,43.9,227.4,43.7z"></path> </g> <path class="st6" d="M220.2,28.5c-1.2,0.1-2,1-1.9,2.2c0.1,1.2,1,2,2.2,1.9c1.2-0.1,2-1,1.9-2.2 C222.3,29.3,221.3,28.5,220.2,28.5z"></path> <path class="st0" d="M194,25.3c-1-0.3-2.3,1.1-2.8,3.1s-0.1,3.8,0.9,4.1c1,0.3,2.3-1.1,2.8-3.1C195.5,27.4,195.1,25.6,194,25.3 z"></path> <path class="st6" d="M194.5,26.8c-0.5-0.1-1,0.5-1.2,1.4c-0.2,0.8,0,1.7,0.4,1.8c0.5,0.1,1-0.5,1.2-1.4 C195.1,27.7,195,26.9,194.5,26.8z"></path> <path class="st9" d="M240.1,31.4c-0.7-12.6-8.5-20.4-20.4-23.7c-6.9-1.9,1.7,0.7-5.5-1.6c3.9-0.8,4.7-0.9,8.7-0.2 c13.2,2.5,21.3,12,23,25.2c0.1,1.6-1.2,2.9-2.8,3C241.5,34.3,240.2,33,240.1,31.4z"></path> <path class="st15" d="M197.1,38.7c-4,8.8-6.3,9.8-13.7,15.7c-5,4-10.1,8.4-15.7,11.4c3.4-5.6,8.4-9.9,13-14.5 c5.9-5.8,8.1-6.7,10.9-14.5c0.5-1.5,2.2-2.3,3.7-1.8C196.9,35.6,197.7,37.2,197.1,38.7z"></path> </g> <path class="st15" d="M218.5,209.5c7.6,27.9,7.6,27.9,7.6,27.9l-0.3,3.2l-0.1,0.5c0,0-0.8,0.4-2.3,0.8c-1.8,0.5-4.5,1.2-7.8,1.5 c-0.8,0.1-1.7,0.1-2.6,0.2c-1.4,0-2.9,0-4.5-0.1c-3.6-0.3-6.5-0.7-8.6-1.3l3.1,3.9c0,0,4.2,0.9,10.9,0.7c0.8,0,1.7-0.1,2.6-0.1 h0c0.7-0.1,1.4-0.1,2.2-0.2c0.2,0,0.5,0,0.6-0.1c1.7-0.2,3.3-0.6,4.7-1.1c0.9-0.3,1.7-0.6,2.4-1c0.6-0.3,1.1-0.6,1.6-0.9 c0.6-0.4,0.4-5.9,0.9-6.1c0.4-0.1,2,3.9,2.4,3.6c0.8-0.7,1.3-1.3,1.3-1.3l-2.3-4.2l-8.1-28.8 C220.7,208.1,220.4,208.6,218.5,209.5z"></path> <path class="st16" d="M218.5,209.5c7.6,27.9,7.6,27.9,7.6,27.9l-0.3,3.2l-0.1,0.5c0,0-0.8,0.4-2.3,0.8c-0.2,0-0.3,0.1-0.5,0.2 c0.8,0.9,1.7,1.8,2.5,2.7c0.4-0.2,0.7-0.3,1.1-0.5c0.6-0.3,1.1-0.6,1.6-0.9c0.6-0.4,0.4-5.9,0.9-6.1c0.4-0.1,2,3.9,2.4,3.6 c0.8-0.7,1.3-1.3,1.3-1.3l-2.3-4.2l-8.1-28.9C220.7,208.1,220.4,208.6,218.5,209.5z"></path> <path class="st15" d="M174.7,239.5c0.7,1.9,0.7,2.9,1.7,4.8c0.1,0,0.3,0,0.4-0.1c0.8-0.1,1.7-0.2,2.6-0.2 c1.9-0.1,3.8-0.2,5.6-0.4l-0.3-4.2l-6.3,0c-1.2-1.9-2-2.8-3.9-5.2c-1.3,1.6-2.7,4.9-4.1,5.6c0,0-0.3,0-0.7,0.1 c-0.6,0.1-3.3-0.2-4.5-0.1c-2.7,0.1-6.9,0-11.2-0.9c0.2,1.4,0.5,2.7,0.7,4.1c3.2,1,7.4,1.7,11.9,1.7c0.9,0,1.8,0,2.6-0.1 c0.8-0.1,2.8-0.1,3.7-0.2c0.1,0,0.1,0,0.2,0C173.8,242.2,174.2,241.7,174.7,239.5z"></path> <path class="st16" d="M180.6,244c1.5-0.1,3-0.2,4.4-0.4l-0.3-4.2l-4.6,0c0.2,1.7,0.4,4.3,0.4,4.3L180.6,244z"></path> <path class="st6" d="M220.5,177.6c-1.6,6.4-3.8,12.8-5.5,19.3c0,0,0,0.1,0,0.1c0,0-0.2,0.3-0.2,0.2c-0.1,0,0-0.3,0-0.3l0,0 c-0.5-4.1,3-15.1,4.1-19.7c0.3-1.6,0.3-4.4,1.4-4.3C222,172.7,220.7,176.8,220.5,177.6z"></path> <g> <g> <path class="st15" d="M170.7,159.9c0.8,2.3,1.7,4.6,2.5,6.9c2.1,0.8,4.3,1.5,6.4,2.2c-1.6,1.3-3.3,2.5-4.9,3.8 c0.3,2.3,0.6,4.7,0.9,7c-1.8-1.5-3.7-3.1-5.5-4.7c-1.9,0.5-3.9,1.1-5.8,1.6c0.5-2.1,1-4.2,1.5-6.4c-1.5-2.1-3-4.2-4.5-6.4 c2.1,0.5,4.3,0.9,6.4,1.4C168.7,163.6,169.7,161.8,170.7,159.9z"></path> <path class="st15" d="M193.8,149.5c2.5,0,3.8,1.5,3.7,4.1c0,0.2,0,0.5,0,0.7c0,0.8-0.2,1.7-0.6,2.3c0.4,0.7,0.5,1.7,0.5,2.6 c0,0.7-0.1,1.4-0.1,2.1c0,0.3,0,0.7,0.1,0.9c0.2,0.6,0.4,1.2,0.6,1.8c-7.7-0.3-16-0.9-23.7-2.7c-7.7-1.8-14.8-4.8-20.2-7.7 c0.5-2.2,0.9-4.4,1.4-6.6c0.5-2.2,0.9-4.4,1.4-6.7c12.2,4.9,13.9,5.5,16.3,6.1C175.4,147.1,178.5,147.7,193.8,149.5z"></path> <path class="st6" d="M155.3,153.2c0.5,0.3,1.1,0.6,1.6,0.8c0.1-0.7,0.3-1.5,0.4-2.2c0.6,0.3,1.3,0.6,2,0.9v0 c0.1,0.8,0.1,1.7,0.2,2.5c0.6,0.3,1.2,0.5,1.7,0.7c-0.2-2.1-0.5-4.2-0.6-6.4c-0.2-2.1-0.5-4.2-0.6-6.4 c-0.8-0.4-1.6-0.7-2.4-1.1c-0.4,1.8-0.7,3.7-1.2,5.5C156.1,149.6,155.7,151.4,155.3,153.2L155.3,153.2z M157.6,150.4 c0.3-1.8,0.6-3.7,1-5.5h0c0.2,2.1,0.4,4.2,0.5,6.3C158.7,150.8,158.1,150.6,157.6,150.4L157.6,150.4z M162.1,156.3 c1.6,0.6,3.1,1.2,4.6,1.7c0-0.5,0-1.1,0.1-1.7c-0.9-0.3-1.9-0.6-2.9-1c0.1-1.7,0.1-3.4,0.2-5.1c0.1-1.7,0.1-3.4,0.2-5.1 c-0.6-0.2-1.2-0.5-1.7-0.6c-0.1,2-0.2,4-0.2,6C162.3,152.4,162.2,154.4,162.1,156.3L162.1,156.3z M167.6,158.3 c1.6,0.5,3.1,0.9,4.7,1.3c0-0.5,0-1.2,0.1-1.7c-0.9-0.3-1.9-0.5-2.9-0.8c0.1-1.7,0.1-3.4,0.2-5.1c0.1-1.7,0.1-3.4,0.2-5.1 c-0.6-0.2-1.2-0.4-1.7-0.5c-0.1,2-0.2,4-0.2,5.9C167.8,154.3,167.7,156.3,167.6,158.3L167.6,158.3z M175.4,160.5 c1.7,0.4,2.7-0.5,2.8-2.5c0.1-1.5-0.4-2.5-1.8-4.2c-1.1-1.4-1.5-2-1.4-2.9c0-0.8,0.4-1.1,0.9-0.9c0.5,0.1,0.9,0.5,0.8,1.4 c0,0.2,0,0.4,0,0.6c0.5,0.1,1.1,0.2,1.7,0.3c0-0.2,0-0.3,0-0.5c0.1-1.9-0.7-3.1-2.5-3.5c-1.7-0.4-2.6,0.5-2.7,2.4 c-0.1,1.4,0.4,2.5,1.8,4.2c1.1,1.4,1.5,2,1.4,3c0,0.9-0.4,1.1-0.9,1s-0.9-0.5-0.8-1.4c0-0.3,0-0.5,0-0.8 c-0.5-0.1-1.1-0.3-1.7-0.4c0,0.2,0,0.5,0,0.7C172.8,158.9,173.6,160.1,175.4,160.5L175.4,160.5z M180.4,161.4 c0.6,0.1,1.2,0.2,1.8,0.3c0.1-1.7,0.1-3.4,0.2-5.1s0.1-3.4,0.2-5.1c0.6,0.1,1.3,0.2,1.8,0.3c0-0.5,0-1.2,0.1-1.7 c-1.8-0.3-3.6-0.5-5.5-0.8c0,0.5,0,1.2-0.1,1.7c0.6,0.1,1.2,0.2,1.8,0.4c-0.1,1.7-0.1,3.4-0.2,5.1 C180.6,158,180.5,159.7,180.4,161.4L180.4,161.4z M183.7,161.9c0.4-1.9,0.7-3.9,1.2-5.8c0.4-2,0.7-3.9,1.2-5.9 c0.8,0.1,1.6,0.2,2.4,0.3c0.2,2,0.5,4,0.7,6.1c0.2,2,0.5,4,0.7,6c-0.6,0-1.2-0.1-1.8-0.1c-0.1-0.8-0.2-1.6-0.2-2.4 c0,0,0,0,0,0c-0.6-0.1-1.4-0.1-2-0.2c-0.1,0.7-0.3,1.6-0.4,2.3C184.8,162,184.2,161.9,183.7,161.9L183.7,161.9z M186,158.1 c0.5,0.1,1,0.1,1.6,0.2c-0.2-2-0.4-4-0.5-6h0C186.7,154.3,186.4,156.2,186,158.1L186,158.1z M190.6,162.5 c0.6,0,1.2,0.1,1.8,0.1c0.1-1.7,0.1-3.4,0.2-5.1c0.2,0,0.4,0,0.6,0c0.8,0,1.1,0.4,1,1.5c0,0.7-0.1,1.5-0.1,2.2 c0,1,0,1.2,0.1,1.5c0.6,0,1.2,0,1.8,0c-0.2-0.5-0.2-0.9-0.1-1.5c0-0.7,0.1-1.4,0.1-2.1c0.1-1.4-0.2-2.2-1.1-2.6v0 c0.8-0.3,1.2-1.1,1.3-2.3c0-0.3,0-0.5,0-0.7c0.1-1.8-0.7-2.7-2.5-2.8c-0.9,0-1.7-0.1-2.6-0.2c-0.1,2-0.2,4-0.2,6 C190.8,158.5,190.7,160.5,190.6,162.5L190.6,162.5z M192.7,155.8c0-1.2,0.1-2.3,0.1-3.4c0.3,0,0.5,0,0.8,0 c0.6,0,0.9,0.4,0.8,1.3c0,0.3,0,0.6,0,0.9c0,0.9-0.5,1.3-1.1,1.3C193.1,155.9,192.9,155.8,192.7,155.8z"></path> </g> <path class="st16" d="M175.3,176.9l0.4,2.9c-1.4-1.2-2.8-2.3-4.2-3.5C172.7,176.6,174,176.7,175.3,176.9L175.3,176.9z M168.4,175.6c-1.4,0.4-2.7,0.7-4.1,1.1l0.5-2C166,175.1,167.2,175.4,168.4,175.6z"></path> <path class="st12" d="M174.7,126.9c5.5,3.8,13,4.5,21.6,4c2.3-0.2,4.4-0.4,6.1-0.6c1.5-1.3,2.8-2.6,4.1-3.9 c-3.6,1.1-7.4,1.6-11,1.7c-5.1,0.1-10.6-0.7-15.3-2.6c-0.8-0.3-1.6-0.7-2.4-1.1c-0.5-0.3-0.9-0.5-1.4-0.8 c-1.7-1-3.2-2.3-4.3-3.9c-0.3,1.5-0.6,2.9-0.8,4.3c0.6,0.7,1.2,1.3,1.9,1.9C173.8,126.1,174.2,126.5,174.7,126.9z"></path> </g> <polygon class="st6" points="251.1,160.1 292.8,169 264.3,200.6 268.7,242.9 229.8,225.6 190.9,242.9 195.4,200.6 166.9,169 208.5,160.1 229.8,123.2 "></polygon> <polygon class="st0" points="229.8,129.6 249.1,162.9 286.8,170.9 261,199.5 265,237.8 229.8,222.2 194.7,237.8 198.6,199.5 172.9,170.9 210.6,162.9 "></polygon> <polygon class="st10" points="247.5,165 282.2,172.4 258.5,198.7 262.2,233.9 229.8,219.5 197.5,233.9 201.2,198.7 177.5,172.4 212.1,165 229.8,134.4 "></polygon> <polygon class="st6" points="246.7,166.2 279.7,173.2 257.1,198.3 260.6,231.8 229.8,218.1 199,231.8 202.5,198.3 179.9,173.2 213,166.2 229.8,137 "></polygon> <polygon class="st17" points="229.8,139.5 213.8,167.3 182.4,174 203.9,197.9 200.5,229.7 229.8,216.7 259.1,229.7 255.8,197.9 277.2,174 245.8,167.3 "></polygon> <polygon class="st18" points="229.8,145.9 215.8,170.1 188.4,175.9 207.2,196.8 204.3,224.6 229.8,213.2 255.4,224.6 252.5,196.8 271.2,175.9 243.8,170.1 "></polygon> <path class="st15" d="M243.8,170.1l-4.6-8l-9.4-16.2l-6.7,11.5l0,0.1l-1.8,3l-0.6,1.1l-4.3,7.5l-0.6,1.1l-13.6,2.9l-13.8,2.9 l1.4,1.5l3.8,4.3l4.2,4.7l3.7,4.1l0.1,0.1l1.3,1.4l2.6,2.8l1.3,1.5l0.4,0.5l0,0.4c1-0.3,1.9-0.7,2.9-1c0.5-0.2,1-0.4,1.5-0.6 c1.1-0.5,2.2-0.9,3.3-1.4c0.4-0.2,0.7-0.3,1.1-0.5c0.7-0.3,1.4-0.6,2.1-0.9c0.3-0.1,0.5-0.3,0.7-0.4c0.5-0.3,1.1-0.5,1.7-0.8 c0.4-0.2,0.7-0.4,1.1-0.6c0.6-0.4,1.3-0.7,1.9-1.1c10-5.7,16.9-12.5,21.9-19.4L243.8,170.1z"></path> </g> </g> </g> <g> <g> <path class="st2" d="M125.6,176.6c4.7,0.3,9.3,3.8,12.3,6.9c2.8,2.8,5.8,5.6,8.8,8.4l1.7,1.6l-9.1,9l-1.7-1.5 c-3-2.8-6-5.8-8.9-8.8c-2-2.2-4.1-4.4-5.8-6.8c-1.3-1.8-3.2-4.8-1.5-7.2C122.7,176.9,124.2,176.6,125.6,176.6z"></path> <path class="st3" d="M125.2,179.1c3.7,0.3,7.9,3.3,11,6.3c3.1,3,8.8,8.4,8.8,8.4l-5.4,5.3C136.5,196.3,117.8,178.5,125.2,179.1z"></path> <path class="st2" d="M120.4,180.9c4.7,0,9.6,3.1,13,5.9c2.3,1.9,4.6,3.8,6.9,5.6c1.1,0.8,1.7,2,1.8,3.5c0.1,2.7-1.9,4.9-3.4,7.1 c-0.4,0.6-1,1-1.7,1.2s-1.4,0-1.9-0.4c-3.3-2.6-6.6-5.1-9.7-7.8c-2.3-1.9-4.6-4-6.5-6.2c-1.5-1.7-3.8-4.4-2.2-6.8 C117.5,181.3,118.9,180.9,120.4,180.9z"></path> <path class="st3" d="M120.1,183.3c3.8,0,8.2,2.6,11.5,5.3c1.9,1.6,4.9,3.9,7,5.6c2.5,2-0.5,5.2-1.9,7.3 C133.3,199.1,112.6,183.3,120.1,183.3z"></path> <path class="st2" d="M136,195.4c0-0.3-0.2-1.1-0.3-1.4c-1.3-1.8-2.6-3.7-3.8-5.5c-2.8-4.2-5.5-8.5-7.8-12.9 c-1.9-3.5-3.7-7.3-4.9-11c-1.3-4-2.8-8.9-1.3-13.5c0.8-2.3,2.2-4.2,3.8-6c2-2.3,4.2-4.6,6.3-6.9c9.5-10.6,33.2-28.9,47.1-29.7 l1.8-0.1l0.4,1.8c0.8,3.3-0.8,8.7-1.9,12c-1.7,5.4-3.9,11-6.2,16.2c-2.4,5.6-4.9,11.2-7.5,16.8c-0.9,2-1.9,4-2.8,6.1 c-0.5,1-1,2.2-1.4,3.2c-0.2,0.6-0.3,1.5-0.5,2.2c-0.2,1.3-0.5,2.5-0.6,3.8c-0.5,3.3-0.8,6.7-1.2,10c-0.6,5.7-1.2,11.5-1.7,17.1 l-0.2,1.4l-1.2,0.7c-1.6,1-3.1,2-4.8,2.9c-1.5,0.8-3.2,2-4.7,2.6c-3.2,1.4-7.2-1-9.6-2.7c-1.4-0.9-2.9-2.3-2.1-4.3 c0.8-2,2.8-2,4.5-2.7C135.8,195.5,136,195.4,136,195.4z"></path> <path class="st4" d="M174.9,110.8c-12.5,0.6-35.7,18-45.2,28.8c-9.5,10.7-12.4,11.5-8.2,23.9c4.1,12.4,16.4,29.1,16.4,29.1 c3.3,7.7-8.4,4.4-3.1,7.8c1.9,1.4,5.2,3.3,7.2,2.5c2-0.8,9.1-5.3,9.1-5.3s2.5-28.9,4.1-33.7C156.9,159,177,119.5,174.9,110.8z"></path> <path class="st2" d="M144.3,162.2c-0.9-5.7-2.7-9-8.1-11.5c-3.2-1.5-5.8-1.6-9.3-1.9l3.5-0.9c3.3-0.4,7.3,0.7,9.9,2.4 c4.9,2.9,6.2,6.1,7.4,11.5c0.1,0.9-0.6,1.8-1.6,2.1C145.2,163.8,144.4,163.2,144.3,162.2z"></path> <path class="st2" d="M141.9,193.6c1.2,3.2,0.1,6.8-2.5,8.3c-2.7,1.4-5.9,0.1-7.1-3.1c-1.3-3.2-0.1-6.8,2.5-8.3 C137.5,189.1,140.7,190.4,141.9,193.6z"></path> <path class="st4" d="M140.7,194.3c-1-2.4-3.4-3.5-5.4-2.4c-2.1,1.1-2.9,3.9-2,6.4c1,2.4,3.4,3.5,5.4,2.4 C140.8,199.5,141.8,196.6,140.7,194.3z"></path> <path class="st2" d="M140.1,197.5c-0.6,1.9-2.4,2.9-4.1,2.2c-1.7-0.7-2.5-2.9-2-4.8c0.6-1.9,2.4-2.9,4.1-2.2 C139.9,193.5,140.7,195.6,140.1,197.5z"></path> <path class="st4" d="M139.5,197.3c0.5-1.6-0.2-3.3-1.6-3.8c-1.4-0.6-2.8,0.2-3.3,1.8c-0.5,1.6,0.2,3.3,1.6,3.8 C137.6,199.6,139,198.9,139.5,197.3z"></path> <path class="st2" d="M139.5,197.3c0-0.2,0.1-0.4,0.2-0.6l-4.7-2.1c-0.1,0.2-0.1,0.3-0.2,0.5c0,0.2-0.1,0.4-0.2,0.6l4.7,2.1 C139.4,197.6,139.4,197.4,139.5,197.3z"></path> <path class="st3" d="M158.6,123.8c-12.2,5.5-22.5,17.7-24.9,20.9c-1.1,1.5-1.8,2.4-2.2,3c3-0.1,6.4,1,8.8,2.3 c1,0.6,4.5,3.5,5.4,5.7C148.1,145.8,152.1,132.1,158.6,123.8z"></path> <path class="st3" d="M133.7,180c-4.8-7.1-11.2-20.5-12.7-30.1c-1.9,3.3-1.8,6.7,0.5,13.6c1.5,4.4,3.9,9.2,6.4,13.6 c0.7,1.3,1.5,2.5,2.2,3.7c1.6,2.7,3.2,5.2,4.6,7.1c0.6,0.8,1.1,1.6,1.5,2.3c0.4-0.1,0.7-0.1,1.2-0.1c1.9,0.2,3.8,1.5,4.6,3.7 c0.3,0.8,0.5,1.8,0.5,2.7c0,2.3-1.1,4.6-3,5.6h-0.1c-0.1,0.1-0.2,0.1-0.3,0.2c-0.3,0.1-0.5,0.2-0.7,0.3c0.2,0.1,0.4,0.2,0.5,0.3 c1.2,0.5,2.4,0.6,3.3,0.3c1-0.5,3.7-2,5.8-3.3c0.1-0.1,0.2-0.1,0.3-0.2c-0.1-0.1-0.1-0.3-0.2-0.3c-0.6-1-1.3-2.1-1.9-3.2 c-3.6-6.5-2.5-10.2-2.9-11.5C138.2,186.2,136,183.4,133.7,180z"></path> <path class="st5" d="M125.8,144.9c6.6-8.9,19.1-19.1,28.7-24.8c2.2-1.3,1.7-1,4-1.8c-10.4,8.5-22.3,16.6-30,27.8 c-0.4,0.7-1.4,1.2-2.1,0.8C125.6,146.6,125.3,145.8,125.8,144.9z"></path> <path class="st5" d="M147.1,149.8c2.4-9.5,9.6-22.9,16.8-29.8l3.2-2.6c-6.5,11.7-12.6,19.4-15,32.8c-0.2,1.4-1.6,2.4-3,2.3 C147.7,152.5,146.7,151.2,147.1,149.8z"></path> </g> <path class="st0" d="M190.8,110.1c-24.8-1.5-38.2,19.9-42.4,48.9c6.8,3.3,5.2,3.4,5.2,3.4l10.2-10.4l24.8,3.6 c0,0,7,14.6,11.6,14.9c4.6,0.3,31.2-2.2,39.8-9c0,0,0.1-0.1,0.1-0.1C235.2,133.4,215.6,111.5,190.8,110.1z"></path> <path class="st6" d="M227.3,165.9c-1.3-1.1-2.5-2.2-3.7-3.3c-4.6-4.3-9-9.3-12.2-14.8c-3.2-5.5,12.1-5.6,12.7-12 c0-0.1,0.1-2.3,0.2-2.4c0.8-4.4-17.2-13.8-13.1-16c-3.2-1.4,5.1-2.4,16.8,2.7c17.3,7.6,44.5,37.2,46.9,56.6 c-0.1,6.4-9.8,10.6-14.9,12.7c-7.6,3-16.5,4.6-24.6,5.2c-4.4,0.3-8.8,0.4-13.2,0.2c-2.6-0.2-5.3-0.3-7.8,0c-0.2,0-0.6,0.1-1,0.1 c0.2,0.2,0.4,0.3,0.5,0.4c1.1,0.6,1.6,2,1.1,3.2c-0.5,1.2-1.7,1.8-3,1.6c-1.7-0.4-3.7-1.4-5.1-2.4c-3.4-2.4-5.4-5.8-5.8-9.9 c-0.3-3.3,2.3-6.3,4.6-8.4c2.8-2.6,6.2-4.8,9.4-6.8c3.6-2.1,7.2-4.1,10.9-5.9C226.4,166.3,226.8,166.1,227.3,165.9z"></path> <path class="st0" d="M210.9,130.4c1-5.8,0.1-9.8,4.2-10.6c6.1-1.2,18.6,3.9,28.1,13.9c15.8,16.6,28.7,34.1,28.4,44 c-0.2,9.8-26.9,16.3-47.6,15.1c-20.7-1.2-9.8,5.3-9.8,5.3s-8.3-1.9-8.9-10s28.6-21,28.6-21S209.1,149.3,210.9,130.4z"></path> <path class="st11" d="M229.7,123.5c4.6,2.4,9.3,5.8,13.5,10.2c13.7,14.3,25.1,29.4,27.8,39.6c-2.6,0.4-4.3,0.6-4.3,0.6s0,0-6.5-13 C254.2,149,239.2,129.8,229.7,123.5z"></path> <path class="st12" d="M218.7,119.8c2.8,0.3,6.3,1.4,9.9,3.2c-5.2,5.5-7.8,14.5-0.6,24s-2.6,7.4-7.1,8c-2.5-2.9-4.8-6.2-6.7-9.8 C214.7,136.9,216.2,125.3,218.7,119.8z"></path> <path class="st6" d="M155,128c1.9-2.8,3.6-5.8,5.4-8.6c1.6-2.6,3.5-5.3,5.5-7.6c1.6-1.8,4-4.1,6.6-3.7c2,0.3,2.1,1.8,1.8,3.1 c-0.1,0.3-0.1,0.5-0.2,0.8c-0.2,0.8-0.4,1.6-0.6,2.4c-0.2,0.8-0.4,1.7-0.6,2.6c-0.6,3.3-1.5,6.5-1.6,9.9 c-0.3,8.3,4.4,11.3,12.4,11.8c2,0.1,4-0.1,5.9-0.6c6.9-1.9,13-7.6,17.9-12.5c3.1-3,6.2-6.1,9.4-9l0.9-0.8l9.3,2.8 c2.3,0.7,2.4,3.7,0.3,4.8c-4.1,2.1-6.5,8.7-7.4,12.9c-0.9,4-1.4,9.4-0.2,13.4c0.3,1.2,0.8,2.2,1.4,3.2c0.5,0.9,1.1,1.8,1.5,2.7 c0.6,1.5,0.8,3,0.6,4.6l-2.9,23.8l9.4,17.8l-1.8,1.1c-0.6,0.4-1.3,1-1.9,1.5c-0.9,0.7-1.8,1.5-2.6,2.2c-1.6,1.3-3.5,2.7-5.3,3.5 c-21.9,8.4-55.1,7.9-75.1-6.1c-5.5-3.8-3.1-4-1.4-8.7c0.1-0.3,0.3-0.8,0.4-1.2c0.5-8.8,0.6-17.6,1.8-26.4 c1.3-9.6,2.4-19.2,5.4-28.4c0.4-1.3,0.6-2.6,0.8-4c0.2-1.4,0.3-2.8,0.8-4.1c0.5-1.3,1.8-1.9,3-2.5 C154.1,128.4,154.7,128.2,155,128z"></path> <path class="st13" d="M156.7,129.4c-0.5,0.7-3.5,1.5-3.9,2.4c-0.8,2-0.5,4.7-1.6,8c-2.7,8.3-4,16.9-5.3,26.8 c-1.2,9.1-1.5,19.9-2,27.9c-0.1,1.2-1,2.6-1,3.7c-0.1,2.4-0.9,2.1,0.9,3.3c19.1,13.7,51.8,14.3,73.3,6.1c2.9-1.2,7.3-5.5,9.6-6.9 l-8.7-16.5l3-24.5c0.5-4.1-1.9-4.7-3.3-9.7c-2.4-8.2,0.9-24.9,8.7-28.9c0.4-0.2,0.5-0.5,0.1-0.6l-8.1-2.5c0,0-4.8,4.4-9.4,8.9 c-6.7,6.7-15.3,14.4-25.5,13.8c-19.4-1.1-14.3-17.3-12.9-24.4c0.4-1.8,1.6-6.1,1.6-6.1C167.9,109.6,160.8,123.4,156.7,129.4z"></path> <path class="st14" d="M169.5,211.7c16.2,2.9,34.2,1.3,47.7-4c2.9-1.2,7.3-5.5,9.6-6.9l-8.7-16.5l3-24.5c0.5-4.1-1.9-4.7-3.3-9.7 c-0.4-1.3-0.6-2.7-0.7-4.3c-1.2-0.4-1.8-0.5-1.8-0.5c-5.5,23.5-13.6,29-16.8,30.8c-3.2,1.9-18.4,2.4-28.7,0 c-10.2-2.4-20.4-6-20.4-6s11.3,10.4,22.3,11.6c11,1.2,28.3-1.5,27.9,2.1c-0.4,3.6-6.3,5.5-12.2,9.4s8.3,0.4,13.8-2.4 c5.5-2.7-1.4,21-16.9,20.8C168.6,211.2,174.4,211.5,169.5,211.7z"></path> <path class="st15" d="M183.5,140.8c-9.7-0.5-13.2-4.8-14.2-9.8c-0.1-0.6-0.2-1.2-0.3-1.8c-0.4-4.6,0.9-9.6,1.6-12.7 c0.1-0.4,0.2-0.9,0.4-1.6c0.2-0.6,0.3-1.4,0.5-2c0-0.1,0.1-0.3,0.1-0.4c-0.1,0.1-0.1,0.2-0.2,0.3c-0.6,0.9-1.2,1.9-1.7,2.9 c-2.3,4.5-3.3,9.4-3.1,14.3c0,0.7,0.1,1.5,0.1,2.3c0.6,6.4,6.2,9.3,11.3,10.4c8.1,1.8,17.6-1.5,24.3-6.8c3-2.4,6.2-5.2,9.1-8 c1.4-1.4,2.7-2.7,4.1-4c0.9-0.8,1.7-1.7,2.6-2.5c0.5-0.4,0.9-0.8,1.4-1.3c0.4-0.4,0.8-0.8,1.3-1.2l-2-0.6l-0.2-0.1 c0,0-0.7,0.6-1.8,1.7c-0.1,0.1-0.1,0.1-0.2,0.2c-0.7,0.7-1.6,1.5-2.6,2.5c-0.6,0.6-1.4,1.3-2.1,2c-0.2,0.2-0.5,0.4-0.7,0.6 c-0.6,0.6-1.4,1.3-2,2C202.3,133.7,193.7,141.4,183.5,140.8z"></path> <path class="st15" d="M216.9,141.9c0.3-4.7,1.5-9.8,3.5-14c0.5-1,1.1-2,1.7-2.9c1-1.4,2.1-2.6,3.4-3.4c0.3-0.2,0.5-0.3,0.8-0.5 c0.4-0.2,0.5-0.5,0.1-0.6l-2.7-0.8c-0.4,0.3-0.7,0.6-1.1,1c-0.8,0.8-1.6,1.7-2.2,2.7c-0.6,0.9-1.3,1.9-1.8,3 c-1.6,2.9-2.8,6.3-3.7,9.8c-0.6,2.4-0.9,4.8-1,7.1c0,0.4,0,0.9,0,1.3c0.1,4.3,1.3,8.3,3.6,11.7c0.1,0.1,0.2,0.2,0.2,0.3 c1.2,1.7,2.3,3.1,3.2,4.2l0.1-0.7l0-0.3c0.5-3.8-1.5-4.5-2.9-8.5c-0.1-0.4-0.3-0.8-0.4-1.3C217,147.8,216.8,144.9,216.9,141.9z"></path> <g> <path class="st6" d="M245.5,50.4c-15.3,21.1-35.3,44.2-38.9,67.5c-1.5,9.3-20.2,5.9-26.4,1.6c-12.6-8.7,18.4-43.7,37.1-59.4 c5.3-4.5,10.2-6.9,12.1-7.3C236.7,51.3,245.3,51.6,245.5,50.4z"></path> <path class="st6" d="M240.5,53.6c-2.7,0.2-5.4,0.4-8.1,0.8c-0.8,0.1-1.7,0.3-2.5,0.5c-1.2,0.3-3.1,1.3-4.1,1.9 c-2.5,1.4-4.8,3.1-7,5c-6.9,5.8-13.5,12.4-19.4,19.1c-3.1,3.5-6.1,7.1-8.9,10.9c-2.5,3.3-4.9,6.8-6.9,10.4 c-1.8,3.2-5.4,10.5-3.2,14.2c0.3,0.5,0.8,1,1.3,1.4c2.7,1.8,7.1,3.1,10.4,3.6c3.5,0.5,11.9,1.2,12.7-3.7 c1.4-8.6,4.7-16.8,8.8-24.4c4.4-8.2,9.7-16,15.2-23.4C232.4,64.3,236.5,59,240.5,53.6z"></path> <path class="st0" d="M214.8,65.1c1.9,0.5,4.2,1.3,6.6,2.4c2.1,1,4.2,2.2,5.9,3.8c-0.3,0.5-0.7,0.9-1,1.4 c-1.7-1.5-3.7-2.7-5.7-3.6c-2.8-1.4-5.5-2.2-7.4-2.6C213.8,66,214.3,65.6,214.8,65.1L214.8,65.1z M207.4,72.2 c-0.5,0.5-1,1-1.5,1.5c2.2,0.2,4.6,0.9,6.9,2.1c2.6,1.3,5.2,3.1,7.7,5.4c0.3-0.5,0.6-1,0.9-1.5c-2.5-2.4-5.2-4.2-7.9-5.5 C211.5,73.3,209.4,72.6,207.4,72.2L207.4,72.2z M198.7,81.5c-0.4,0.5-0.8,1-1.3,1.5c3.2,0.7,6.4,1.8,9.3,3.1 c2.8,1.3,5.4,2.8,7.9,4.7c0.3-0.5,0.5-1,0.8-1.5c-2.6-1.9-5.3-3.5-8.1-4.7C204.6,83.2,201.7,82.2,198.7,81.5L198.7,81.5z M190.9,90.8c-0.2,0.3-0.4,0.5-0.6,0.8c-0.1,0.2-0.3,0.3-0.4,0.5c1.6,0.9,3.9,1.9,6.4,3c4.6,1.9,10.1,3.8,13.5,4.9 c0.2-0.5,0.5-1,0.7-1.6c-3.3-1-8.9-3-13.6-4.9C194.6,92.6,192.4,91.6,190.9,90.8L190.9,90.8z M184.7,100c1.9,1.8,5.4,3.5,9.4,4.8 c4.6,1.6,9.7,2.6,13.1,2.5c-0.2,0.5-0.4,1.2-0.5,1.7c-3.6,0-8.6-1-13.1-2.5c-3.9-1.3-7.5-3-9.7-4.9 C184.1,101,184.4,100.5,184.7,100z"></path> <g> <path class="st6" d="M181.8,106.4c-0.4,0.7-0.2,2,0,2.7c0.6,0.8,3.1,2,4,2.3c2.8,1.1,6,1.7,9.1,1.9c1.4,0.1,2.8,0,4.2-0.1 c1.8-0.2,6.3-0.8,7.2-2.7c0.1-0.2,0.1-0.3,0.2-0.5c0.1-0.5,0.1-1,0.2-1.5c0-0.3,0-0.5,0.1-0.8c0.2-1.4,1.1-2.4,2.6-2.5 c2.4-0.1,4.7,0.6,6.5,2.3c2.1,1.9,2.9,4.7,2.6,7.5c-0.4,3.2-2.2,5.9-4.8,7.8c-5,3.6-11.9,5-18,5.1c-5.1,0.1-10.6-0.7-15.3-2.6 c-4-1.6-8.2-4.4-9.4-8.7c-0.3-1.1-0.4-2.3-0.3-3.4c0.5-5.7,2.3-9.8,8.7-10.8c1.1-0.2,2.6-0.3,3.2,0.6 C183,104,182.4,105.6,181.8,106.4L181.8,106.4z"></path> <path class="st0" d="M179.6,105.1c-5.1,0.7-6.1,3.9-6.5,8.5c-1,11.3,26.7,16.1,38.8,7.3c6.6-4.8,3.8-13.3-2.6-12.9 c-0.2,0,0,2.3-0.7,3.8c-1.7,3.6-8.7,4.5-13.9,4.3c-8-0.4-14.9-3.7-15.5-6C178.5,106.7,179.6,105.1,179.6,105.1z"></path> <path class="st6" d="M177.1,112.9c0.9,0,1.7,0.8,1.6,1.7c0,0.9-0.8,1.6-1.8,1.6c-0.9,0-1.7-0.8-1.6-1.7 C175.3,113.6,176.1,112.9,177.1,112.9L177.1,112.9z M211.3,114.6c0.9,0,1.7,0.8,1.6,1.7c0,0.9-0.8,1.6-1.8,1.6 c-0.9,0-1.7-0.8-1.6-1.7C209.5,115.4,210.3,114.6,211.3,114.6L211.3,114.6z M205.2,118c0.9,0,1.7,0.8,1.6,1.7 c0,0.9-0.8,1.6-1.8,1.6c-0.9,0-1.7-0.8-1.6-1.7C203.5,118.7,204.3,118,205.2,118L205.2,118z M197.8,119.4c0.9,0,1.7,0.8,1.6,1.7 c0,0.9-0.8,1.6-1.8,1.6c-0.9,0-1.7-0.8-1.6-1.7C196.1,120.1,196.9,119.4,197.8,119.4L197.8,119.4z M189.9,118.8 c0.9,0,1.7,0.8,1.6,1.7c0,0.9-0.8,1.6-1.8,1.6c-0.9,0-1.7-0.8-1.6-1.7C188.1,119.5,188.9,118.8,189.9,118.8L189.9,118.8z M182.7,116.5c0.9,0,1.7,0.8,1.6,1.7c0,0.9-0.8,1.6-1.8,1.6c-0.9,0-1.7-0.8-1.6-1.7S181.7,116.5,182.7,116.5z"></path> <path class="st9" d="M179.2,107.9c-1,8.1,21.5,10.7,28.4,6.1l0.6-0.4c-3.3,6.9-32.9,6.6-31.9-6.1c0.1-0.7,0.9-1.3,1.7-1.2 C178.8,106.4,179.3,107.2,179.2,107.9z"></path> </g> </g> <g> <path class="st6" d="M216.9,2.1c17.6-0.9,32.6,12.6,33.6,30.2c0.9,17.6-12.6,32.6-30.2,33.6c-17.6,0.9-32.6-12.6-33.6-30.2 C185.8,18.1,199.3,3.1,216.9,2.1z"></path> <path class="st10" d="M217,4.7c-16.2,0.8-28.6,14.7-27.7,30.8c0.8,16.2,14.7,28.6,30.8,27.7c16.2-0.8,28.6-14.7,27.7-30.8 C247,16.3,233.3,3.9,217,4.7z"></path> <path class="st0" d="M217,4.7c-14,0.7-25.2,11.2-27.4,24.5c2.8,14,15.6,24.3,30.3,23.5c14-0.7,25.2-11.2,27.4-24.5 C244.5,14.2,231.8,4,217,4.7z"></path> <path class="st6" d="M193.7,16.3c-4.3,5.4-5.5,15.3-5.3,19.3c0.2,4.1,1,1.3,1.1,1.9c6.1-6.7,8.2-4.8,11.2-3.2 c3.2,1.7,4.1,7.6,12.5,8.5c8.5,0.8,18.8-12.9,12.5-19.2c-5-5-18.4-8.8-28.3-7.9C196.9,15.6,194.2,16.2,193.7,16.3z"></path> <path class="st0" d="M218.1,27c-2.6,0.1-4.6,2.4-4.5,5s2.4,4.6,5,4.5c2.6-0.1,4.6-2.4,4.5-5C223,28.8,220.8,26.8,218.1,27z"></path> <path class="st6" d="M218.9,47.2c0.8,0.2,2.9,0.1,3.8,0.1c2.4,0,6.5-0.1,7.4,2.7c0.2,0.6,0.2,1.4,0,2c-1,2.8-5.3,5.2-7.8,6.6 c-4.2,2.3-8.7,4.2-13.1,5.9c-2.9,1.2-5.9,2.3-8.9,3.3c-7.3,2.6-14.4,4.9-22.3,4.1c-2.3-0.2-4.8-0.9-5.8-3.3 c-0.8-2.1,0.2-4.2,1.4-5.9c1.5-2,3.4-3.9,5.2-5.6c3.4-3.1,8.5-7.9,10.3-12.3c1-2.5,2.4-5.2,4.2-7.3c1.6-1.8,3.6-3.3,6-3.1 c4,0.2,6.1,4.5,7.3,7.7C208.1,46.7,215.2,45.5,218.9,47.2z"></path> <path class="st7" d="M204.1,43.1c2.2,6.3,10.5,4.8,13.8,6.5c1.6,0.8,10.5-0.4,9.8,1.6c-1.3,3.8-16.7,10.2-28.3,14.2 c-6.9,2.4-13.8,4.7-21.2,4c-6.2-0.6-4.3-4.2,2.3-10.3c6.8-6.2,9.6-10.1,10.9-13.2C195.5,36.1,200.7,33.5,204.1,43.1z"></path> <path class="st6" d="M219.7,49.8c-0.2,1.4-1.5,2.5-2.5,3.4c-1.7,1.4-3.8,2.7-5.7,3.8c-5.7,3.5-11.8,6.6-17.9,9.2 c-6.3,2.7-13.9,5.7-20.7,6.5c-3.2,0.4-9.3,1.1-10.9-2.7c-1.1-2.8,1.4-5.8,3.2-7.7c2.4-2.5,5-4.9,7.6-7.2c0.6-0.5,1.2-1.1,1.8-1.6 c2.9-2.7,11.1-10.1,12.6-13.7c0.9-2.3,2.3-4.7,4.1-6.5c1.6-1.6,3.6-2.6,5.8-2.5c1.2,0.1,2.2,0.4,3.2,1c1.8,1.1,3.4,2.4,4.9,3.8 c1.2,1,2.3,2.2,3.5,3.1c1.4,1,2.8,1.6,4.5,1.8c2.8,0.4,6.1-0.2,8.8-0.8c1.8-0.4,4.2-0.7,5.1,1.4c0.8,1.8-0.5,3.3-1.7,4.4 c-0.9,0.8-1.9,1.6-2.9,2.3c-0.7,0.5-1.5,1.1-2.1,1.6C220.1,49.5,219.9,49.6,219.7,49.8z"></path> <path class="st8" d="M216.4,50.5c-4.6,4.5-29.6,18-43.8,19.7c-16.1,2-5.1-6.7,3.8-14.8c6.8-6.2,11.9-11.5,13.2-14.6 c2.6-6.4,6.3-8.7,9.4-6.8c8,4.8,8.1,11.9,23.6,8.2C228.9,40.5,218.2,48.6,216.4,50.5z"></path> <path class="st6" d="M224.6,38.8c4.2-0.2,7.8,3,8,7.2c0.2,4.2-3,7.8-7.2,8c-4.2,0.2-7.8-3-8-7.2 C217.1,42.6,220.3,39.1,224.6,38.8z"></path> <g> <path class="st0" d="M224.7,40.6c-3.2,0.2-5.7,2.9-5.5,6.1c0.2,3.2,2.9,5.7,6.1,5.5c3.2-0.2,5.7-2.9,5.5-6.1 C230.6,42.9,227.8,40.5,224.7,40.6z"></path> <path class="st6" d="M228,43.1c1.9,1.7,2,4.6,0.3,6.5s-4.6,2-6.5,0.3s-2-4.6-0.3-6.5C223.2,41.5,226.1,41.3,228,43.1z"></path> <path class="st0" d="M227.4,43.7c-1.5-1.4-3.8-1.3-5.2,0.3s-1.3,3.8,0.3,5.2s3.8,1.3,5.2-0.3C229,47.4,228.9,45.1,227.4,43.7z"></path> <path class="st6" d="M227.4,43.7c-0.2-0.2-0.4-0.3-0.6-0.4l-4.8,5.3c0.1,0.2,0.3,0.4,0.5,0.5s0.4,0.3,0.6,0.4l4.8-5.3 C227.7,44.1,227.6,43.9,227.4,43.7z"></path> </g> <path class="st6" d="M220.2,28.5c-1.2,0.1-2,1-1.9,2.2c0.1,1.2,1,2,2.2,1.9c1.2-0.1,2-1,1.9-2.2 C222.3,29.3,221.3,28.5,220.2,28.5z"></path> <path class="st0" d="M194,25.3c-1-0.3-2.3,1.1-2.8,3.1s-0.1,3.8,0.9,4.1c1,0.3,2.3-1.1,2.8-3.1C195.5,27.4,195.1,25.6,194,25.3z"></path> <path class="st6" d="M194.5,26.8c-0.5-0.1-1,0.5-1.2,1.4c-0.2,0.8,0,1.7,0.4,1.8c0.5,0.1,1-0.5,1.2-1.4 C195.1,27.7,195,26.9,194.5,26.8z"></path> <path class="st9" d="M240.1,31.4c-0.7-12.6-8.5-20.4-20.4-23.7c-6.9-1.9,1.7,0.7-5.5-1.6c3.9-0.8,4.7-0.9,8.7-0.2 c13.2,2.5,21.3,12,23,25.2c0.1,1.6-1.2,2.9-2.8,3C241.5,34.3,240.2,33,240.1,31.4z"></path> <path class="st15" d="M197.1,38.7c-4,8.8-6.3,9.8-13.7,15.7c-5,4-10.1,8.4-15.7,11.4c3.4-5.6,8.4-9.9,13-14.5 c5.9-5.8,8.1-6.7,10.9-14.5c0.5-1.5,2.2-2.3,3.7-1.8C196.9,35.6,197.7,37.2,197.1,38.7z"></path> </g> <path class="st6" d="M220.5,177.6c-1.6,6.4-3.8,12.8-5.5,19.3c0,0,0,0.1,0,0.1c0,0-0.2,0.3-0.2,0.2c-0.1,0,0-0.3,0-0.3l0,0 c-0.5-4.1,3-15.1,4.1-19.7c0.3-1.6,0.3-4.4,1.4-4.3C222,172.7,220.7,176.8,220.5,177.6z"></path> <g> <g> <path class="st15" d="M170.7,159.9c0.8,2.3,1.7,4.6,2.5,6.9c2.1,0.8,4.3,1.5,6.4,2.2c-1.6,1.3-3.3,2.5-4.9,3.8 c0.3,2.3,0.6,4.7,0.9,7c-1.8-1.5-3.7-3.1-5.5-4.7c-1.9,0.5-3.9,1.1-5.8,1.6c0.5-2.1,1-4.2,1.5-6.4c-1.5-2.1-3-4.2-4.5-6.4 c2.1,0.5,4.3,0.9,6.4,1.4C168.7,163.6,169.7,161.8,170.7,159.9z"></path> <path class="st15" d="M193.8,149.5c2.5,0,3.8,1.5,3.7,4.1c0,0.2,0,0.5,0,0.7c0,0.8-0.2,1.7-0.6,2.3c0.4,0.7,0.5,1.7,0.5,2.6 c0,0.7-0.1,1.4-0.1,2.1c0,0.3,0,0.7,0.1,0.9c0.2,0.6,0.4,1.2,0.6,1.8c-7.7-0.3-16-0.9-23.7-2.7c-7.7-1.8-14.8-4.8-20.2-7.7 c0.5-2.2,0.9-4.4,1.4-6.6c0.5-2.2,0.9-4.4,1.4-6.7c12.2,4.9,13.9,5.5,16.3,6.1C175.4,147.1,178.5,147.7,193.8,149.5z"></path> <path class="st6" d="M155.3,153.2c0.5,0.3,1.1,0.6,1.6,0.8c0.1-0.7,0.3-1.5,0.4-2.2c0.6,0.3,1.3,0.6,2,0.9v0 c0.1,0.8,0.1,1.7,0.2,2.5c0.6,0.3,1.2,0.5,1.7,0.7c-0.2-2.1-0.5-4.2-0.6-6.4c-0.2-2.1-0.5-4.2-0.6-6.4c-0.8-0.4-1.6-0.7-2.4-1.1 c-0.4,1.8-0.7,3.7-1.2,5.5C156.1,149.6,155.7,151.4,155.3,153.2L155.3,153.2z M157.6,150.4c0.3-1.8,0.6-3.7,1-5.5h0 c0.2,2.1,0.4,4.2,0.5,6.3C158.7,150.8,158.1,150.6,157.6,150.4L157.6,150.4z M162.1,156.3c1.6,0.6,3.1,1.2,4.6,1.7 c0-0.5,0-1.1,0.1-1.7c-0.9-0.3-1.9-0.6-2.9-1c0.1-1.7,0.1-3.4,0.2-5.1c0.1-1.7,0.1-3.4,0.2-5.1c-0.6-0.2-1.2-0.5-1.7-0.6 c-0.1,2-0.2,4-0.2,6C162.3,152.4,162.2,154.4,162.1,156.3L162.1,156.3z M167.6,158.3c1.6,0.5,3.1,0.9,4.7,1.3 c0-0.5,0-1.2,0.1-1.7c-0.9-0.3-1.9-0.5-2.9-0.8c0.1-1.7,0.1-3.4,0.2-5.1c0.1-1.7,0.1-3.4,0.2-5.1c-0.6-0.2-1.2-0.4-1.7-0.5 c-0.1,2-0.2,4-0.2,5.9C167.8,154.3,167.7,156.3,167.6,158.3L167.6,158.3z M175.4,160.5c1.7,0.4,2.7-0.5,2.8-2.5 c0.1-1.5-0.4-2.5-1.8-4.2c-1.1-1.4-1.5-2-1.4-2.9c0-0.8,0.4-1.1,0.9-0.9c0.5,0.1,0.9,0.5,0.8,1.4c0,0.2,0,0.4,0,0.6 c0.5,0.1,1.1,0.2,1.7,0.3c0-0.2,0-0.3,0-0.5c0.1-1.9-0.7-3.1-2.5-3.5c-1.7-0.4-2.6,0.5-2.7,2.4c-0.1,1.4,0.4,2.5,1.8,4.2 c1.1,1.4,1.5,2,1.4,3c0,0.9-0.4,1.1-0.9,1s-0.9-0.5-0.8-1.4c0-0.3,0-0.5,0-0.8c-0.5-0.1-1.1-0.3-1.7-0.4c0,0.2,0,0.5,0,0.7 C172.8,158.9,173.6,160.1,175.4,160.5L175.4,160.5z M180.4,161.4c0.6,0.1,1.2,0.2,1.8,0.3c0.1-1.7,0.1-3.4,0.2-5.1 s0.1-3.4,0.2-5.1c0.6,0.1,1.3,0.2,1.8,0.3c0-0.5,0-1.2,0.1-1.7c-1.8-0.3-3.6-0.5-5.5-0.8c0,0.5,0,1.2-0.1,1.7 c0.6,0.1,1.2,0.2,1.8,0.4c-0.1,1.7-0.1,3.4-0.2,5.1C180.6,158,180.5,159.7,180.4,161.4L180.4,161.4z M183.7,161.9 c0.4-1.9,0.7-3.9,1.2-5.8c0.4-2,0.7-3.9,1.2-5.9c0.8,0.1,1.6,0.2,2.4,0.3c0.2,2,0.5,4,0.7,6.1c0.2,2,0.5,4,0.7,6 c-0.6,0-1.2-0.1-1.8-0.1c-0.1-0.8-0.2-1.6-0.2-2.4c0,0,0,0,0,0c-0.6-0.1-1.4-0.1-2-0.2c-0.1,0.7-0.3,1.6-0.4,2.3 C184.8,162,184.2,161.9,183.7,161.9L183.7,161.9z M186,158.1c0.5,0.1,1,0.1,1.6,0.2c-0.2-2-0.4-4-0.5-6h0 C186.7,154.3,186.4,156.2,186,158.1L186,158.1z M190.6,162.5c0.6,0,1.2,0.1,1.8,0.1c0.1-1.7,0.1-3.4,0.2-5.1c0.2,0,0.4,0,0.6,0 c0.8,0,1.1,0.4,1,1.5c0,0.7-0.1,1.5-0.1,2.2c0,1,0,1.2,0.1,1.5c0.6,0,1.2,0,1.8,0c-0.2-0.5-0.2-0.9-0.1-1.5 c0-0.7,0.1-1.4,0.1-2.1c0.1-1.4-0.2-2.2-1.1-2.6v0c0.8-0.3,1.2-1.1,1.3-2.3c0-0.3,0-0.5,0-0.7c0.1-1.8-0.7-2.7-2.5-2.8 c-0.9,0-1.7-0.1-2.6-0.2c-0.1,2-0.2,4-0.2,6C190.8,158.5,190.7,160.5,190.6,162.5L190.6,162.5z M192.7,155.8 c0-1.2,0.1-2.3,0.1-3.4c0.3,0,0.5,0,0.8,0c0.6,0,0.9,0.4,0.8,1.3c0,0.3,0,0.6,0,0.9c0,0.9-0.5,1.3-1.1,1.3 C193.1,155.9,192.9,155.8,192.7,155.8z"></path> </g> <path class="st16" d="M175.3,176.9l0.4,2.9c-1.4-1.2-2.8-2.3-4.2-3.5C172.7,176.6,174,176.7,175.3,176.9L175.3,176.9z M168.4,175.6c-1.4,0.4-2.7,0.7-4.1,1.1l0.5-2C166,175.1,167.2,175.4,168.4,175.6z"></path> <path class="st12" d="M174.7,126.9c5.5,3.8,13,4.5,21.6,4c2.3-0.2,4.4-0.4,6.1-0.6c1.5-1.3,2.8-2.6,4.1-3.9 c-3.6,1.1-7.4,1.6-11,1.7c-5.1,0.1-10.6-0.7-15.3-2.6c-0.8-0.3-1.6-0.7-2.4-1.1c-0.5-0.3-0.9-0.5-1.4-0.8c-1.7-1-3.2-2.3-4.3-3.9 c-0.3,1.5-0.6,2.9-0.8,4.3c0.6,0.7,1.2,1.3,1.9,1.9C173.8,126.1,174.2,126.5,174.7,126.9z"></path> </g> <polygon class="st6" points="251.1,160.1 292.8,169 264.3,200.6 268.7,242.9 229.8,225.6 190.9,242.9 195.4,200.6 166.9,169 208.5,160.1 229.8,123.2 "></polygon> <polygon class="st0" points="229.8,129.6 249.1,162.9 286.8,170.9 261,199.5 265,237.8 229.8,222.2 194.7,237.8 198.6,199.5 172.9,170.9 210.6,162.9 "></polygon> <polygon class="st10" points="247.5,165 282.2,172.4 258.5,198.7 262.2,233.9 229.8,219.5 197.5,233.9 201.2,198.7 177.5,172.4 212.1,165 229.8,134.4 "></polygon> <polygon class="st6" points="246.7,166.2 279.7,173.2 257.1,198.3 260.6,231.8 229.8,218.1 199,231.8 202.5,198.3 179.9,173.2 213,166.2 229.8,137 "></polygon> <polygon class="st17" points="229.8,139.5 213.8,167.3 182.4,174 203.9,197.9 200.5,229.7 229.8,216.7 259.1,229.7 255.8,197.9 277.2,174 245.8,167.3 "></polygon> <polygon class="st18" points="229.8,145.9 215.8,170.1 188.4,175.9 207.2,196.8 204.3,224.6 229.8,213.2 255.4,224.6 252.5,196.8 271.2,175.9 243.8,170.1 "></polygon> <path class="st15" d="M243.8,170.1l-4.6-8l-9.4-16.2l-6.7,11.5l0,0.1l-1.8,3l-0.6,1.1l-4.3,7.5l-0.6,1.1l-13.6,2.9l-13.8,2.9 l1.4,1.5l3.8,4.3l4.2,4.7l3.7,4.1l0.1,0.1l1.3,1.4l2.6,2.8l1.3,1.5l0.4,0.5l0,0.4c1-0.3,1.9-0.7,2.9-1c0.5-0.2,1-0.4,1.5-0.6 c1.1-0.5,2.2-0.9,3.3-1.4c0.4-0.2,0.7-0.3,1.1-0.5c0.7-0.3,1.4-0.6,2.1-0.9c0.3-0.1,0.5-0.3,0.7-0.4c0.5-0.3,1.1-0.5,1.7-0.8 c0.4-0.2,0.7-0.4,1.1-0.6c0.6-0.4,1.3-0.7,1.9-1.1c10-5.7,16.9-12.5,21.9-19.4L243.8,170.1z"></path> </g> </g> </svg> 