<?xml version="1.0" encoding="utf-8"?>
<!-- Generator: Adobe Illustrator 27.7.0, SVG Export Plug-In . SVG Version: 6.00 Build 0)  -->
<svg version="1.1" id="Layer_1" xmlns="http://www.w3.org/2000/svg" xmlns:xlink="http://www.w3.org/1999/xlink" x="0px" y="0px"
	 viewBox="0 0 220.94 63.34" enable-background="new 0 0 220.94 63.34" xml:space="preserve">
<g>
	<polygon opacity="0.5" fill="#1D4ED8" points="40.35,23 0.03,23 23.41,0 63.74,0 	"/>
	<polygon opacity="0.5" fill="#1D4ED8" points="40.52,45 23.66,44.73 24.31,23 62.89,23 	"/>
	<path fill="#1D4ED8" d="M0,23h40.34v40.34C40.34,63.34,0,23.75,0,23z"/>
</g>
<g>
	<path opacity="0.7" fill="#1D4ED8" d="M77.87,44.27v-28h5.2v28H77.87z M80.27,21.07v-4.8h16.16v4.8H80.27z M80.27,32.79v-4.72
		h14.44v4.72H80.27z"/>
	<path opacity="0.7" fill="#1D4ED8" d="M100.35,44.27v-29.6h4.96v29.6H100.35z"/>
	<path opacity="0.7" fill="#1D4ED8" d="M117.67,44.67c-1.73,0-3.31-0.48-4.72-1.44c-1.41-0.96-2.55-2.27-3.4-3.92
		c-0.85-1.65-1.28-3.53-1.28-5.64s0.43-3.99,1.28-5.64c0.85-1.65,2.01-2.95,3.48-3.88c1.47-0.93,3.12-1.4,4.96-1.4
		c1.07,0,2.04,0.15,2.92,0.46c0.88,0.31,1.65,0.74,2.32,1.3c0.67,0.56,1.22,1.2,1.66,1.92c0.44,0.72,0.74,1.49,0.9,2.32l-1.08-0.28
		v-5.28h4.96v21.08h-5v-5.04l1.16-0.2c-0.19,0.72-0.53,1.42-1.02,2.1c-0.49,0.68-1.11,1.28-1.84,1.8c-0.73,0.52-1.55,0.94-2.44,1.26
		C119.64,44.51,118.68,44.67,117.67,44.67z M119.03,40.31c1.15,0,2.16-0.28,3.04-0.84c0.88-0.56,1.57-1.34,2.06-2.34
		s0.74-2.15,0.74-3.46c0-1.28-0.25-2.41-0.74-3.4c-0.49-0.99-1.18-1.76-2.06-2.32c-0.88-0.56-1.89-0.84-3.04-0.84
		c-1.15,0-2.15,0.28-3.02,0.84c-0.87,0.56-1.54,1.33-2.02,2.32c-0.48,0.99-0.72,2.12-0.72,3.4c0,1.31,0.24,2.46,0.72,3.46
		s1.15,1.78,2.02,2.34C116.88,40.03,117.88,40.31,119.03,40.31z"/>
	<path opacity="0.7" fill="#1D4ED8" d="M139.11,44.27l-7.08-21.08l5.04-0.04l4.72,15.04l-0.88-0.08l5.12-11.76h2.96l5.24,11.76
		l-1.04,0.12l4.76-15.04h5.04l-7.12,21.08h-3.52l-5.4-12.64l0.76,0.08l-5.12,12.56H139.11z"/>
	<path fill="#1D4ED8" d="M166.51,44.27v-28h5.2v28H166.51z M168.91,21.07v-4.8h16.16v4.8H168.91z M168.91,32.79v-4.72h14.44v4.72
		H168.91z"/>
	<path fill="#1D4ED8" d="M191.91,18.71c-0.99,0-1.75-0.25-2.3-0.74c-0.55-0.49-0.82-1.19-0.82-2.1c0-0.85,0.28-1.55,0.84-2.08
		c0.56-0.53,1.32-0.8,2.28-0.8c1.01,0,1.79,0.25,2.34,0.74c0.55,0.49,0.82,1.21,0.82,2.14c0,0.83-0.28,1.51-0.84,2.04
		C193.67,18.44,192.9,18.71,191.91,18.71z M189.51,44.27V23.19h4.92v21.08H189.51z"/>
	<path fill="#1D4ED8" d="M197.47,44.27l8.36-11.2l2.8,3.36l-5.36,7.84H197.47z M213.31,44.27l-6-8.12l-1.12-1.52l-8.68-11.44h6.08
		l5.84,7.92l1.24,1.68l8.6,11.48H213.31z M210.67,34.43l-2.68-3.32l4.84-7.92h5.8L210.67,34.43z"/>
</g>
</svg>
