<?xml version="1.0" encoding="utf-8"?>
<!-- Generator: Adobe Illustrator 28.0.0, SVG Export Plug-In . SVG Version: 6.00 Build 0)  -->
<svg version="1.1" id="Ebene_1" xmlns="http://www.w3.org/2000/svg" xmlns:xlink="http://www.w3.org/1999/xlink" x="0px" y="0px"
	 viewBox="0 0 104 120" style="enable-background:new 0 0 104 120;" xml:space="preserve">
<style type="text/css">
	.st0{fill:#FBBE24;}
	.st1{clip-path:url(#SVGID_00000072970224544883367900000009646673285589248668_);}
	.st2{fill:#FFFFFF;}
</style>
<path class="st0" d="M51.7,61.1L3.3,89l48.5,28l48.5-28C100.2,89,51.7,61.1,51.7,61.1z"/>
<g>
	<defs>
		<rect id="SVGID_1_" width="104" height="120"/>
	</defs>
	<clipPath id="SVGID_00000052809227091808764990000014429124206808277914_">
		<use xlink:href="#SVGID_1_"  style="overflow:visible;"/>
	</clipPath>
	<g style="clip-path:url(#SVGID_00000052809227091808764990000014429124206808277914_);">
		<path class="st2" d="M102.9,29.7L52.3,0.4c-0.3-0.2-0.8-0.2-1.1,0L0.5,29.6C0.2,29.8,0,30.2,0,30.6V89c0,0.4,0.2,0.8,0.5,0.9
			l50.6,29.2c0.2,0.1,0.4,0.2,0.5,0.2s0.4-0.1,0.5-0.2l50.6-29.2c0.3-0.2,0.5-0.6,0.5-0.9V30.6C103.5,30.2,103.2,29.9,102.9,29.7
			L102.9,29.7L102.9,29.7z M101.3,87.1L52.8,59.2v-56l48.4,28V87.1z M51.7,117L3.3,89l48.4-27.9L100.2,89
			C100.2,89,51.7,117,51.7,117z"/>
	</g>
</g>
</svg>
