<?xml version="1.0" encoding="utf-8"?>
<!-- Generator: Adobe Illustrator 28.0.0, SVG Export Plug-In . SVG Version: 6.00 Build 0)  -->
<svg version="1.1" id="Ebene_1" xmlns="http://www.w3.org/2000/svg" xmlns:xlink="http://www.w3.org/1999/xlink" x="0px" y="0px"
	 viewBox="0 0 104 120" style="enable-background:new 0 0 104 120;" xml:space="preserve">
<style type="text/css">
	.st0{fill:#FFFFFF;}
	.st1{fill:#FBBE24;}
	.st2{clip-path:url(#SVGID_00000032628701365551872560000000992297597359943069_);}
	.st3{fill:#172554;}
</style>
<g>
	<polygon class="st0" points="49.4,4 49.5,58.4 64.6,67.6 101.6,88.7 103.1,29.9 51.7,0.9 	"/>
	<path class="st1" d="M51.7,61.1L3.3,89l48.5,28l48.5-28C100.2,89,51.7,61.1,51.7,61.1z"/>
	<g>
		<defs>
			<rect id="SVGID_1_" width="104" height="120"/>
		</defs>
		<clipPath id="SVGID_00000132074243856370737060000003196539649961941933_">
			<use xlink:href="#SVGID_1_"  style="overflow:visible;"/>
		</clipPath>
		<g style="clip-path:url(#SVGID_00000132074243856370737060000003196539649961941933_);">
			<path class="st3" d="M102.9,29.7L52.3,0.4c-0.3-0.2-0.8-0.2-1.1,0L0.5,29.6C0.2,29.8,0,30.2,0,30.6V89c0,0.4,0.2,0.8,0.5,0.9
				l50.6,29.2c0.2,0.1,0.4,0.2,0.5,0.2s0.4-0.1,0.5-0.2l50.6-29.2c0.3-0.2,0.5-0.6,0.5-0.9V30.6C103.5,30.2,103.2,29.9,102.9,29.7
				L102.9,29.7L102.9,29.7z M101.3,87.1L52.8,59.2v-56l48.5,28V87.1z M51.7,117L3.3,89l48.4-27.9L100.2,89
				C100.2,89,51.7,117,51.7,117z"/>
		</g>
	</g>
</g>
</svg>
