<?xml version="1.0" encoding="UTF-8"?>
<svg id="Ebene_1" data-name="Ebene 1" xmlns="http://www.w3.org/2000/svg" xmlns:xlink="http://www.w3.org/1999/xlink" viewBox="0 0 197.52 178.76">
  <defs>
    <style>
      .cls-1 {
        clip-path: url(#clippath);
      }

      .cls-2 {
        fill: none;
      }

      .cls-2, .cls-3, .cls-4 {
        stroke-width: 0px;
      }

      .cls-3 {
        fill: #fff;
      }

      .cls-4 {
        fill: #fbbe24;
      }
    </style>
    <clipPath id="clippath">
      <rect class="cls-2" x="45.17" width="104" height="120"/>
    </clipPath>
  </defs>
  <path class="cls-4" d="m96.9,61.1l-48.45,27.9,48.45,27.99,48.45-27.99s-48.45-27.9-48.45-27.9Z"/>
  <g class="cls-1">
    <path class="cls-3" d="m148.07,29.66L97.44.41c-.34-.19-.75-.19-1.09,0l-50.64,29.24c-.34.19-.54.56-.54.94v58.41c0,.39.2.75.54.94l50.64,29.24c.18.1.36.15.54.15s.38-.05.54-.15l50.64-29.24c.34-.19.54-.56.54-.94V30.6c.02-.39-.19-.75-.53-.94h0Zm-1.64,57.46l-48.45-27.9V3.25l48.45,27.98v55.89Zm-49.54,29.88l-48.44-27.98,48.44-27.91,48.44,27.91s-48.44,27.98-48.44,27.98Z"/>
  </g>
  <path class="cls-3" d="m16.77,127.65v5.81H6.6v5.75h9.4v5.81H6.6v11.63H0v-29s16.77,0,16.77,0Z"/>
  <path class="cls-3" d="m32.01,127.65v23.21h9.98v5.79h-16.58v-29s6.6,0,6.6,0Z"/>
  <path class="cls-3" d="m65.48,127.65l11.71,29h-7.1l-2.15-5.79h-11.04l-2.13,5.79h-7.1l11.71-29s6.1,0,6.1,0Zm.21,17.4l-3.23-8.44h-.06l-3.25,8.44h6.54Z"/>
  <path class="cls-3" d="m106.03,156.65l-4.65-16.27-4.63,16.27h-7.35l-8.25-29h7.33l4.96,19.9h.19l5.27-19.9h4.98l5.27,19.9h.19l4.96-19.9h7.29l-8.25,29h-7.31Z"/>
  <path class="cls-3" d="m145.43,127.65v5.81h-10.17v5.75h9.4v5.81h-9.4v11.63h-6.6v-29s16.77,0,16.77,0Z"/>
  <path class="cls-3" d="m160.67,127.65v29h-6.6v-29s6.6,0,6.6,0Z"/>
  <path class="cls-3" d="m197.52,156.65h-8.54l-6.85-9.88-6.85,9.88h-8.19l10.96-15.6-9.15-13.4h7.88l5.35,7.92,5.33-7.92h8.23l-9.5,13.4,11.33,15.6h0Z"/>
  <path class="cls-3" d="m.18,178.53v-15.4h5.83c.94,0,1.74.16,2.4.46.66.29,1.16.73,1.5,1.28s.51,1.21.51,1.98c0,.67-.18,1.28-.55,1.83-.37.54-.88.95-1.56,1.24v.23c1.02.25,1.8.72,2.34,1.39.53.66.8,1.5.8,2.51,0,1.43-.42,2.54-1.26,3.31s-2.09,1.16-3.73,1.16H.18Zm5.75-8.93c.84,0,1.5-.22,1.96-.67.47-.45.72-1.06.72-1.83,0-.83-.23-1.44-.67-1.85-.45-.41-1.12-.61-2-.61H1.99v4.97h3.94,0Zm.38,7.44c2.19,0,3.29-.99,3.29-2.97s-1.1-2.97-3.29-2.97H1.99v5.94s4.32,0,4.32,0Z"/>
  <path class="cls-3" d="m23.54,178.53h-1.79v-6.04l-5.33-9.35h1.98l4.15,7.2h.27l4.11-7.2h1.94l-5.33,9.35v6.04Z"/>
  <path class="cls-3" d="m45.42,163.13v13.9h7.41v1.5h-9.23v-15.4h1.82Z"/>
  <path class="cls-3" d="m62.94,178.76c-1.51,0-2.7-.34-3.58-1.01-.87-.68-1.43-1.63-1.69-2.82l1.35-.61.23.04c.26.93.68,1.62,1.24,2.09.56.45,1.37.67,2.44.67s1.9-.24,2.46-.74c.57-.51.86-1.24.86-2.21s-.29-1.67-.86-2.17c-.58-.51-1.49-.76-2.74-.76h-1.66v-1.5h1.5c.97,0,1.73-.24,2.3-.72.57-.47.86-1.16.86-2.04,0-.83-.25-1.45-.74-1.87s-1.19-.63-2.09-.63c-1.55,0-2.65.62-3.31,1.85l-.25.04-1.01-1.1c.42-.72,1.02-1.29,1.79-1.73.78-.43,1.71-.65,2.78-.65.98,0,1.82.16,2.51.46.7.31,1.23.75,1.58,1.33.36.58.55,1.26.55,2.06s-.23,1.43-.67,2c-.44.56-1.01,1.01-1.73,1.35v.21c1.01.25,1.77.72,2.27,1.39.52.66.78,1.48.78,2.46,0,1.46-.44,2.59-1.31,3.39-.87.8-2.16,1.2-3.88,1.2l.02.02Z"/>
  <path class="cls-3" d="m76.71,178.53h-1.66v-15.4h2.67l4.68,13.04h.21l4.68-13.04h2.59v15.4h-1.73v-12.57l-.25-.04-4.55,12.62h-1.81l-4.55-12.62-.27.04v12.57h0Z"/>
  <path class="cls-3" d="m104.01,178.76c-1.34,0-2.52-.28-3.56-.86-1.04-.59-1.86-1.47-2.46-2.65-.59-1.18-.88-2.65-.88-4.42s.29-3.22.88-4.4c.6-1.19,1.42-2.07,2.46-2.65,1.04-.57,2.22-.86,3.56-.86s2.52.29,3.56.86c1.04.58,1.85,1.46,2.44,2.65.6,1.18.91,2.65.91,4.4s-.31,3.24-.91,4.42c-.59,1.18-1.41,2.06-2.44,2.65-1.04.58-2.23.86-3.56.86Zm0-1.69c1.6,0,2.83-.49,3.69-1.5.85-1.01,1.28-2.6,1.28-4.76s-.43-3.74-1.28-4.74c-.86-1-2.09-1.5-3.69-1.5-3.32,0-4.97,2.08-4.97,6.23s1.65,6.26,4.97,6.26h0Z"/>
  <path class="cls-3" d="m119.92,178.53h-1.77v-15.4h2.21l7.52,11.75.25-.04v-11.71h1.77v15.4h-1.9l-7.84-12.6-.25.04v12.55h0Z"/>
  <path class="cls-3" d="m147.62,163.13v1.54h-4.82v13.86h-1.81v-13.86h-4.82v-1.54h11.46,0Z"/>
  <path class="cls-3" d="m153.87,178.53v-15.4h5.58c1.04,0,1.91.17,2.61.51s1.23.82,1.58,1.45c.35.62.53,1.35.53,2.19,0,.96-.24,1.75-.72,2.38-.48.62-1.22,1.08-2.23,1.39v.21c.49.2.89.51,1.2.93.32.42.62,1.05.88,1.9l1.43,4.44h-1.87l-1.54-4.72c-.18-.55-.39-.97-.63-1.28-.24-.32-.54-.55-.91-.7-.37-.14-.83-.21-1.39-.21h-2.72v6.91h-1.81,0Zm5.54-8.45c.97,0,1.69-.22,2.15-.67.47-.45.72-1.13.72-2.04s-.24-1.58-.72-2.02c-.46-.45-1.18-.67-2.15-.67h-3.73v5.41h3.73Z"/>
  <path class="cls-3" d="m173.3,171.26v5.77h7.84v1.5h-9.65v-15.4h9.48v1.5h-7.67v5.14h6.76v1.5h-6.76Z"/>
  <path class="cls-3" d="m189.67,171.26v5.77h7.84v1.5h-9.65v-15.4h9.48v1.5h-7.67v5.14h6.76v1.5h-6.76Z"/>
</svg>