<?xml version="1.0" encoding="UTF-8"?>
<svg id="Layer_1" xmlns="http://www.w3.org/2000/svg" version="1.1" viewBox="0 0 800 800">
  <!-- Generator: Adobe Illustrator 30.3.0, SVG Export Plug-In . SVG Version: 2.1.3 Build 182)  -->
  <g id="Page-1">
    <g id="Dribbble-Light-Preview">
      <g id="icons">
        <path id="github-_x5B__x23_142_x5D_" d="M400,0c220.92,0,400,183.59,400,410.12,0,181.17-114.48,334.84-273.32,389.12-20.28,4.04-27.48-8.75-27.48-19.69,0-13.52.48-57.68.48-112.56,0-38.22-12.8-63.18-27.16-75.92,89.08-10.16,182.68-44.84,182.68-202.36,0-44.79-15.52-81.35-41.2-110.08,4.16-10.35,17.88-52.07-3.92-108.55,0,0-33.52-11-109.88,42.05-31.96-9.08-66.2-13.65-100.2-13.81-34,.16-68.2,4.73-100.12,13.81-76.44-53.05-110.04-42.05-110.04-42.05-21.72,56.48-8,98.2-3.88,108.55-25.56,28.73-41.2,65.29-41.2,110.08,0,157.13,93.4,192.32,182.24,202.7-11.44,10.23-21.8,28.32-25.4,54.82-22.8,10.49-80.72,28.61-116.4-34.06,0,0-21.16-39.41-61.32-42.29,0,0-39-.53-2.72,24.92,0,0,26.2,12.6,44.4,60,0,0,23.48,73.2,134.76,48.4.2,34.28.56,66.6.56,76.35,0,10.84-7.36,23.54-27.32,19.73C114.6,745.08,0,591.33,0,410.12,0,183.59,179.12,0,400,0" fill="#fff" fill-rule="evenodd"/>
      </g>
    </g>
  </g>
</svg>