<?xml version="1.0" encoding="UTF-8"?>
<svg id="Layer_1" xmlns="http://www.w3.org/2000/svg" version="1.1" viewBox="0 0 700.02 630">
  <!-- Generator: Adobe Illustrator 30.3.0, SVG Export Plug-In . SVG Version: 2.1.3 Build 182)  -->
  <path d="M698.75,360.2l-39.25-117.7L581.9,9C580.02,3.58,574.89-.04,569.15,0c-5.72-.02-10.82,3.6-12.7,9l-77.6,233.35H221.1L143.5,8.95C141.62,3.56,136.51-.04,130.8,0c-5.73-.03-10.83,3.59-12.7,9L40.6,242.35,1.4,360.2c-3.56,10.78.36,22.62,9.65,29.15l339,240.6,338.9-240.6c9.33-6.5,13.31-18.34,9.8-29.15h0Z" fill="#fc6d26"/>
  <path d="M350,629.8l128.9-387.5H221.15l128.85,387.5Z" fill="#e24329"/>
  <path d="M350,629.8L221.05,242.3H40.65l309.35,387.5Z" fill="#fc6d26"/>
  <path d="M40.5,242.45L1.3,360.15c-3.56,10.78.36,22.62,9.65,29.15l339.05,240.7L40.5,242.5v-.05Z" fill="#fca326"/>
  <path d="M40.6,242.45h180.6L143.5,9.1c-1.88-5.4-6.98-9.02-12.7-9-5.74-.04-10.87,3.58-12.75,9L40.6,242.45Z" fill="#e24329"/>
  <path d="M350,629.8l128.9-387.5h180.7l-309.6,387.5Z" fill="#fc6d26"/>
  <path d="M659.5,242.45l39.15,117.7c3.58,10.78-.34,22.63-9.65,29.15l-339,240.5,309.4-387.35h.1Z" fill="#fca326"/>
  <path d="M659.5,242.45h-180.5L556.55,9.1c1.87-5.43,7.01-9.06,12.75-9,5.75,0,10.85,3.65,12.7,9l77.6,233.35h-.1Z" fill="#e24329"/>
</svg>