<?xml version="1.0" encoding="UTF-8"?>
<svg id="Layer_1" xmlns="http://www.w3.org/2000/svg" version="1.1" viewBox="0 0 192.05 184.95">
  <!-- Generator: Adobe Illustrator 30.3.0, SVG Export Plug-In . SVG Version: 2.1.3 Build 182)  -->
  <g id="LOGO">
    <path d="M188.86,73.21l-.27-.69L162.45,4.3c-.53-1.34-1.47-2.47-2.69-3.24-2.49-1.55-5.69-1.38-8,.43-1.12.91-1.93,2.14-2.32,3.52l-17.65,54H60.32L42.67,5.01c-.38-1.39-1.19-2.63-2.32-3.53-2.31-1.81-5.51-1.98-8-.43-1.21.77-2.15,1.91-2.69,3.24L3.47,72.48l-.26.69c-7.73,20.2-1.17,43.07,16.1,56.1l.09.07.24.17,39.82,29.82,19.7,14.91,12,9.06c2.88,2.19,6.88,2.19,9.76,0l12-9.06,19.7-14.91,40.06-30,.1-.08c17.22-13.03,23.78-35.86,16.08-56.04Z" fill="#fff"/>
  </g>
</svg>